<svg width="710" height="266" viewBox="0 0 710 266" fill="none" xmlns="http://www.w3.org/2000/svg">
<path d="M20.3736 234.8C22.8677 235.676 25.5456 235.896 28.1493 235.438C30.7529 234.979 33.1946 233.858 35.2391 232.183C40.4457 227.815 42.0784 220.621 43.4063 213.958L47.335 194.25L39.1099 199.91C33.1945 203.981 27.1463 208.183 23.0509 214.079C18.9555 219.975 17.1688 228.024 20.4584 234.404" fill="#E6E6E6"/>
<path d="M21.6436 260.033C20.6084 252.494 19.5432 244.859 20.2711 237.239C20.9162 230.473 22.9818 223.865 27.187 218.444C29.4191 215.573 32.1351 213.113 35.2131 211.175C36.0155 210.669 36.7542 211.94 35.9552 212.444C30.6294 215.808 26.5101 220.775 24.191 226.63C21.6299 233.14 21.2186 240.238 21.6598 247.154C21.9265 251.336 22.4931 255.491 23.0622 259.641C23.1071 259.829 23.0791 260.027 22.9837 260.194C22.8883 260.362 22.7328 260.488 22.5485 260.545C22.3605 260.596 22.1601 260.57 21.9908 260.474C21.8215 260.378 21.6969 260.219 21.6441 260.032L21.6436 260.033Z" fill="#F2F2F2"/>
<path d="M29.0952 247.937C30.1647 249.562 31.635 250.885 33.3645 251.777C35.0939 252.669 37.0242 253.102 38.9692 253.032C43.969 252.795 48.1355 249.309 51.8858 245.998L62.9809 236.207L55.6381 235.856C50.3574 235.603 44.9405 235.366 39.9109 236.995C34.8812 238.625 30.2427 242.54 29.3232 247.743" fill="#E6E6E6"/>
<path d="M18.7172 264.366C23.7013 255.552 29.4819 245.756 39.8118 242.625C42.6838 241.758 45.6952 241.447 48.6839 241.709C49.626 241.791 49.3907 243.242 48.4506 243.161C43.4406 242.745 38.4403 244.067 34.2915 246.905C30.3913 249.733 27.0847 253.3 24.5596 257.401C22.9479 259.854 21.5043 262.411 20.0608 264.965C19.5995 265.781 18.2506 265.191 18.7172 264.366Z" fill="#F2F2F2"/>
<path d="M476.275 223.279C479.71 224.486 483.397 224.788 486.983 224.157C490.568 223.525 493.93 221.982 496.746 219.675C503.916 213.66 506.164 203.753 507.992 194.578L513.403 167.439L502.076 175.234C493.93 180.839 485.601 186.625 479.962 194.744C474.322 202.864 471.862 213.948 476.392 222.734" fill="#E6E6E6"/>
<path d="M478.024 258.026C476.598 247.645 475.132 237.13 476.134 226.638C477.022 217.32 479.867 208.22 485.657 200.756C488.731 196.802 492.471 193.415 496.71 190.746C497.815 190.049 498.832 191.799 497.732 192.493C490.398 197.125 484.725 203.966 481.532 212.028C478.005 220.993 477.439 230.767 478.046 240.291C478.413 246.05 479.194 251.772 479.977 257.487C480.039 257.745 480.001 258.017 479.869 258.248C479.738 258.479 479.524 258.652 479.27 258.731C479.011 258.801 478.735 258.766 478.502 258.633C478.269 258.501 478.097 258.282 478.025 258.024L478.024 258.026Z" fill="#F2F2F2"/>
<path d="M488.285 241.369C489.758 243.607 491.783 245.428 494.164 246.657C496.546 247.886 499.204 248.481 501.882 248.385C508.767 248.058 514.505 243.258 519.669 238.698L534.948 225.216L524.836 224.732C517.565 224.384 510.105 224.057 503.179 226.301C496.253 228.545 489.865 233.937 488.599 241.102" fill="#E6E6E6"/>
<path d="M473.994 263.993C480.858 251.855 488.818 238.366 503.043 234.054C506.998 232.86 511.144 232.432 515.26 232.793C516.558 232.905 516.234 234.904 514.939 234.792C508.04 234.22 501.154 236.041 495.441 239.948C489.943 243.688 485.662 248.888 482.04 254.402C479.82 257.78 477.832 261.301 475.844 264.817C475.209 265.941 473.352 265.13 473.994 263.993Z" fill="#F2F2F2"/>
<path d="M473.23 183.274C472.507 182.959 471.924 182.389 471.594 181.673C471.263 180.956 471.208 180.143 471.438 179.388C471.475 179.273 471.499 179.153 471.508 179.032V179.032C471.529 178.686 471.438 178.343 471.249 178.053C471.059 177.762 470.781 177.541 470.456 177.421C470.131 177.301 469.776 177.289 469.443 177.387C469.111 177.485 468.818 177.687 468.61 177.963V177.963C468.538 178.061 468.478 178.168 468.431 178.28C468.116 179.003 467.546 179.586 466.829 179.916C466.112 180.246 465.298 180.302 464.543 180.071C464.427 180.034 464.308 180.011 464.186 180.001V180.001C463.841 179.98 463.497 180.071 463.207 180.261C462.917 180.45 462.695 180.728 462.575 181.053C462.455 181.378 462.443 181.733 462.541 182.065C462.638 182.397 462.841 182.69 463.117 182.898C463.216 182.97 463.322 183.03 463.434 183.077C464.158 183.392 464.74 183.962 465.071 184.678C465.402 185.395 465.457 186.208 465.227 186.962C465.189 187.078 465.166 187.198 465.157 187.319C465.136 187.665 465.227 188.008 465.416 188.298C465.605 188.588 465.883 188.81 466.209 188.93C466.534 189.049 466.889 189.061 467.221 188.964C467.554 188.866 467.846 188.664 468.055 188.387C468.127 188.289 468.187 188.183 468.233 188.071C468.549 187.348 469.119 186.765 469.836 186.435C470.553 186.105 471.366 186.049 472.121 186.279C472.237 186.317 472.357 186.34 472.478 186.349V186.349C472.824 186.37 473.168 186.279 473.458 186.09C473.748 185.901 473.97 185.623 474.09 185.298C474.209 184.973 474.222 184.618 474.124 184.286C474.026 183.953 473.824 183.661 473.547 183.453V183.453C473.449 183.381 473.343 183.321 473.23 183.274V183.274Z" fill="#F1F1F1"/>
<path d="M151.936 100.149C151.212 99.8342 150.629 99.2642 150.299 98.5476C149.968 97.8311 149.913 97.0181 150.143 96.2634C150.18 96.1477 150.204 96.028 150.213 95.9068V95.9068C150.234 95.561 150.143 95.2177 149.954 94.9276C149.764 94.6375 149.487 94.4161 149.161 94.2962C148.836 94.1763 148.481 94.1643 148.148 94.2619C147.816 94.3596 147.524 94.5616 147.315 94.8383V94.8383C147.243 94.9364 147.183 95.0426 147.136 95.1548C146.821 95.8782 146.251 96.4605 145.534 96.7909C144.817 97.1212 144.004 97.1766 143.249 96.9464C143.133 96.9091 143.013 96.8856 142.892 96.8765V96.8765C142.546 96.8554 142.202 96.9463 141.912 97.1357C141.622 97.325 141.4 97.6027 141.28 97.9277C141.16 98.2527 141.148 98.6077 141.246 98.9401C141.344 99.2725 141.546 99.5646 141.823 99.7731C141.921 99.8448 142.027 99.9047 142.139 99.9515C142.863 100.267 143.446 100.837 143.776 101.553C144.107 102.27 144.162 103.083 143.932 103.837C143.895 103.953 143.871 104.073 143.862 104.194V104.194C143.841 104.54 143.932 104.883 144.121 105.173C144.311 105.463 144.589 105.685 144.914 105.805C145.239 105.924 145.594 105.936 145.927 105.839C146.259 105.741 146.551 105.539 146.76 105.262V105.262C146.832 105.164 146.892 105.058 146.939 104.946C147.254 104.223 147.824 103.64 148.541 103.31C149.258 102.98 150.071 102.924 150.827 103.154C150.942 103.192 151.062 103.215 151.183 103.224V103.224C151.529 103.245 151.873 103.154 152.163 102.965C152.453 102.776 152.675 102.498 152.795 102.173C152.915 101.848 152.927 101.493 152.829 101.161C152.731 100.828 152.529 100.536 152.252 100.328V100.328C152.154 100.256 152.048 100.196 151.936 100.149V100.149Z" fill="#F1F1F1"/>
<path d="M137.955 249.104C158.779 249.104 175.659 232.233 175.659 211.42C175.659 190.608 158.779 173.737 137.955 173.737C117.132 173.737 100.252 190.608 100.252 211.42C100.252 232.233 117.132 249.104 137.955 249.104Z" fill="#2F2E41"/>
<path d="M132.228 240.995H120.774V261.507H132.228V240.995Z" fill="#2F2E41"/>
<path d="M155.137 240.995H143.682V261.507H155.137V240.995Z" fill="#2F2E41"/>
<path d="M130.319 265.323C135.591 265.323 139.864 263.721 139.864 261.745C139.864 259.769 135.591 258.168 130.319 258.168C125.047 258.168 120.774 259.769 120.774 261.745C120.774 263.721 125.047 265.323 130.319 265.323Z" fill="#2F2E41"/>
<path d="M153.228 264.846C158.5 264.846 162.773 263.244 162.773 261.268C162.773 259.292 158.5 257.691 153.228 257.691C147.956 257.691 143.682 259.292 143.682 261.268C143.682 263.244 147.956 264.846 153.228 264.846Z" fill="#2F2E41"/>
<path d="M178.585 194.953C186.75 186.786 191.29 178.088 188.725 175.526C186.159 172.964 177.46 177.508 169.295 185.675C161.13 193.843 156.59 202.541 159.155 205.103C161.721 207.665 170.42 203.121 178.585 194.953Z" fill="#2F2E41"/>
<path d="M107.565 207.728C110.13 205.166 105.59 196.468 97.425 188.301C89.2596 180.133 80.5606 175.589 77.9952 178.151C75.4299 180.713 79.9697 189.411 88.1351 197.578C96.3005 205.746 105 210.29 107.565 207.728Z" fill="#2F2E41"/>
<path d="M136.369 218.959C143.486 218.959 149.255 213.193 149.255 206.08C149.255 198.967 143.486 193.201 136.369 193.201C129.252 193.201 123.483 198.967 123.483 206.08C123.483 213.193 129.252 218.959 136.369 218.959Z" fill="white"/>
<path d="M136.369 210.373C138.741 210.373 140.664 208.451 140.664 206.08C140.664 203.709 138.741 201.787 136.369 201.787C133.997 201.787 132.074 203.709 132.074 206.08C132.074 208.451 133.997 210.373 136.369 210.373Z" fill="#3F3D56"/>
<path d="M146.598 229.9C146.996 232.085 146.51 234.339 145.245 236.166C143.98 237.993 142.041 239.243 139.854 239.64C137.668 240.038 135.413 239.552 133.585 238.288C131.757 237.024 130.507 235.086 130.109 232.9V232.9L130.106 232.884C129.281 228.332 132.803 226.721 137.357 225.897C141.911 225.073 145.774 225.348 146.598 229.9Z" fill="white"/>
<path d="M174.926 250.971C174.078 250.972 173.264 251.309 172.664 251.909C172.064 252.508 171.726 253.322 171.725 254.17V260.852C171.726 261.701 172.064 262.514 172.664 263.114C173.264 263.713 174.078 264.051 174.926 264.052H226.429C227.278 264.051 228.092 263.713 228.692 263.114C229.292 262.514 229.629 261.701 229.63 260.853V254.17C229.629 253.322 229.292 252.508 228.692 251.909C228.092 251.309 227.278 250.972 226.429 250.971H174.926Z" fill="#E5E5E5"/>
<path d="M204.545 246.52C204.226 246.336 203.847 246.286 203.491 246.382C203.136 246.477 202.833 246.709 202.649 247.028L200.735 250.341L198.859 246.636C198.693 246.308 198.403 246.059 198.053 245.944C197.703 245.83 197.322 245.859 196.994 246.025C196.665 246.191 196.416 246.481 196.302 246.83C196.187 247.18 196.216 247.561 196.382 247.889L197.842 250.772H197.307V264.25H204.446V250.772H203.691L205.053 248.415C205.237 248.097 205.287 247.718 205.192 247.363C205.096 247.007 204.864 246.704 204.545 246.52V246.52Z" fill="#8D86F3"/>
<path d="M136.984 186.703C130.285 186.696 123.625 185.679 117.23 183.687C116.785 183.543 116.398 183.263 116.122 182.887C115.847 182.51 115.697 182.056 115.696 181.589V166.25C115.696 165.67 115.927 165.114 116.338 164.704C116.748 164.294 117.304 164.063 117.884 164.063H156.405C156.985 164.063 157.541 164.294 157.952 164.704C158.362 165.114 158.593 165.67 158.593 166.25V181.58C158.594 182.051 158.442 182.509 158.162 182.887C157.881 183.265 157.487 183.543 157.036 183.679C150.537 185.664 143.78 186.683 136.984 186.703V186.703Z" fill="#8D86F3"/>
<path opacity="0.2" d="M158.156 166.25V168.814L137.311 176.12C136.921 176.254 136.497 176.248 136.111 176.102L116.133 168.604V166.25C116.135 165.786 116.32 165.342 116.648 165.014C116.976 164.686 117.42 164.501 117.884 164.5H156.405C156.869 164.501 157.313 164.686 157.641 165.014C157.969 165.342 158.154 165.786 158.156 166.25Z" fill="black"/>
<path d="M136.728 173.155C136.465 173.155 136.204 173.108 135.958 173.016L106.104 161.812C105.682 161.654 105.319 161.369 105.065 160.997C104.811 160.624 104.678 160.182 104.685 159.732C104.692 159.281 104.838 158.844 105.102 158.479C105.367 158.114 105.738 157.84 106.165 157.694L134.255 148.09C134.708 147.936 135.2 147.934 135.655 148.084L167.005 158.529C167.438 158.673 167.816 158.949 168.084 159.318C168.352 159.687 168.498 160.131 168.502 160.587C168.505 161.043 168.366 161.489 168.103 161.863C167.841 162.236 167.468 162.518 167.037 162.668L137.451 173.033C137.219 173.114 136.974 173.155 136.728 173.155V173.155Z" fill="#8D86F3"/>
<path d="M109.568 172.375H108.692V159.688H135.394V160.563H109.568V172.375Z" fill="#3F3D56"/>
<path d="M109.13 175C110.097 175 110.881 174.216 110.881 173.25C110.881 172.283 110.097 171.5 109.13 171.5C108.163 171.5 107.379 172.283 107.379 173.25C107.379 174.216 108.163 175 109.13 175Z" fill="#3F3D56"/>
<path d="M355.945 249.104C376.769 249.104 393.649 232.233 393.649 211.42C393.649 190.608 376.769 173.737 355.945 173.737C335.122 173.737 318.242 190.608 318.242 211.42C318.242 232.233 335.122 249.104 355.945 249.104Z" fill="#2F2E41"/>
<path d="M350.218 240.995H338.764V261.507H350.218V240.995Z" fill="#2F2E41"/>
<path d="M373.127 240.995H361.673V261.507H373.127V240.995Z" fill="#2F2E41"/>
<path d="M348.309 265.323C353.581 265.323 357.854 263.721 357.854 261.745C357.854 259.769 353.581 258.168 348.309 258.168C343.037 258.168 338.764 259.769 338.764 261.745C338.764 263.721 343.037 265.323 348.309 265.323Z" fill="#2F2E41"/>
<path d="M371.218 264.846C376.49 264.846 380.763 263.244 380.763 261.268C380.763 259.292 376.49 257.691 371.218 257.691C365.946 257.691 361.673 259.292 361.673 261.268C361.673 263.244 365.946 264.846 371.218 264.846Z" fill="#2F2E41"/>
<path d="M396.575 194.953C404.741 186.786 409.28 178.088 406.715 175.526C404.15 172.964 395.451 177.508 387.285 185.676C379.12 193.843 374.58 202.541 377.145 205.103C379.711 207.665 388.41 203.121 396.575 194.953Z" fill="#2F2E41"/>
<path d="M322.292 229.933C328.881 220.449 331.807 211.085 328.828 209.017C325.85 206.95 318.093 212.962 311.505 222.446C304.916 231.93 301.99 241.294 304.968 243.362C307.947 245.429 315.703 239.417 322.292 229.933Z" fill="#2F2E41"/>
<path d="M354.359 218.959C361.476 218.959 367.245 213.193 367.245 206.08C367.245 198.967 361.476 193.201 354.359 193.201C347.242 193.201 341.473 198.967 341.473 206.08C341.473 213.193 347.242 218.959 354.359 218.959Z" fill="white"/>
<path d="M358.736 205.998C361.109 205.998 363.032 204.076 363.032 201.705C363.032 199.334 361.109 197.412 358.736 197.412C356.364 197.412 354.441 199.334 354.441 201.705C354.441 204.076 356.364 205.998 358.736 205.998Z" fill="#3F3D56"/>
<path d="M369.809 229.9C371.073 234.451 366.468 238.812 359.524 239.64C352.58 240.469 345.926 237.451 344.662 232.9L344.657 232.884C343.4 228.332 348.77 226.721 355.715 225.897C362.661 225.073 368.551 225.348 369.809 229.9Z" fill="white"/>
<path d="M342.753 189.242C336.535 191.734 329.976 193.273 323.299 193.809C322.833 193.842 322.369 193.727 321.972 193.48C321.576 193.233 321.268 192.867 321.092 192.435L315.367 178.203C315.151 177.665 315.158 177.063 315.385 176.53C315.613 175.996 316.043 175.575 316.581 175.358L352.32 160.995C352.859 160.779 353.461 160.786 353.995 161.013C354.529 161.241 354.951 161.67 355.168 162.208L360.89 176.431C361.066 176.868 361.096 177.35 360.977 177.805C360.858 178.26 360.596 178.665 360.229 178.96C354.939 183.225 349.051 186.689 342.753 189.242V189.242Z" fill="#8D86F3"/>
<path opacity="0.2" d="M354.762 162.371L355.718 164.75L339.106 179.301C338.794 179.571 338.398 179.724 337.986 179.732L316.652 180.224L315.773 178.04C315.601 177.609 315.607 177.128 315.789 176.702C315.971 176.275 316.314 175.938 316.744 175.764L352.484 161.401C352.915 161.229 353.396 161.235 353.823 161.416C354.25 161.598 354.587 161.942 354.762 162.371V162.371Z" fill="black"/>
<path d="M337.458 176.768C337.214 176.866 336.955 176.919 336.692 176.926L304.811 177.662C304.36 177.673 303.918 177.544 303.543 177.293C303.168 177.042 302.88 176.682 302.718 176.261C302.556 175.841 302.528 175.38 302.638 174.943C302.747 174.506 302.989 174.114 303.331 173.819L325.807 154.434C326.171 154.123 326.626 153.937 327.105 153.907L360.09 151.908C360.546 151.88 360.999 151.996 361.385 152.238C361.772 152.48 362.073 152.838 362.247 153.26C362.421 153.682 362.458 154.147 362.353 154.591C362.249 155.036 362.008 155.436 361.665 155.737L338.083 176.384C337.898 176.546 337.686 176.676 337.458 176.768V176.768Z" fill="#8D86F3"/>
<path d="M311.968 186.171L311.155 186.497L306.42 174.726L331.194 164.77L331.52 165.581L307.558 175.212L311.968 186.171Z" fill="#3F3D56"/>
<path d="M311.888 188.896C312.855 188.896 313.639 188.113 313.639 187.146C313.639 186.18 312.855 185.396 311.888 185.396C310.921 185.396 310.137 186.18 310.137 187.146C310.137 188.113 310.921 188.896 311.888 188.896Z" fill="#3F3D56"/>
<path d="M499.484 122.385C493.801 118.841 488.685 114.459 484.309 109.389C484.008 109.033 483.827 108.59 483.792 108.125C483.758 107.659 483.871 107.195 484.116 106.798L492.228 93.7765C492.535 93.2845 493.025 92.9345 493.59 92.8031C494.156 92.6717 494.75 92.7697 495.243 93.0757L527.943 113.425C528.435 113.732 528.785 114.221 528.917 114.786C529.048 115.351 528.95 115.945 528.644 116.438L520.537 129.452C520.289 129.851 519.918 130.16 519.48 130.333C519.042 130.506 518.56 130.533 518.105 130.411C511.538 128.663 505.264 125.958 499.484 122.385V122.385Z" fill="#8D86F3"/>
<path opacity="0.2" d="M528.273 116.207L526.917 118.383L505.358 113.574C504.956 113.482 504.599 113.252 504.349 112.925L491.355 96.0058L492.6 94.0077C492.846 93.6148 493.238 93.3352 493.69 93.2302C494.142 93.1251 494.617 93.2031 495.011 93.4471L527.712 113.796C528.105 114.042 528.384 114.434 528.49 114.886C528.595 115.337 528.517 115.812 528.273 116.207V116.207Z" fill="black"/>
<path d="M506.431 110.749C506.207 110.61 506.011 110.432 505.851 110.224L486.433 84.9423C486.158 84.5848 486.001 84.1513 485.982 83.701C485.963 83.2507 486.084 82.8057 486.328 82.4267C486.572 82.0477 486.927 81.7532 487.345 81.5836C487.763 81.4139 488.223 81.3773 488.662 81.4788L517.586 88.1642C518.053 88.2736 518.471 88.5314 518.778 88.899L539.868 114.327C540.16 114.678 540.334 115.112 540.366 115.567C540.399 116.022 540.288 116.476 540.05 116.865C539.812 117.254 539.458 117.559 539.038 117.737C538.617 117.915 538.152 117.957 537.706 117.858L507.11 111.027C506.869 110.973 506.64 110.879 506.431 110.749Z" fill="#8D86F3"/>
<path d="M483.787 95.739L483.043 95.2761L489.753 84.5058L512.42 98.6116L511.957 99.3536L490.033 85.7106L483.787 95.739Z" fill="#3F3D56"/>
<path d="M482.952 98.0002C483.919 98.0002 484.703 97.2167 484.703 96.2502C484.703 95.2837 483.919 94.5002 482.952 94.5002C481.985 94.5002 481.201 95.2837 481.201 96.2502C481.201 97.2167 481.985 98.0002 482.952 98.0002Z" fill="#3F3D56"/>
<path d="M590.699 206.229C611.522 206.229 628.402 189.358 628.402 168.545C628.402 147.733 611.522 130.862 590.699 130.862C569.875 130.862 552.995 147.733 552.995 168.545C552.995 189.358 569.875 206.229 590.699 206.229Z" fill="#2F2E41"/>
<path d="M616.837 188.085L607.063 194.055L617.765 211.557L627.539 205.587L616.837 188.085Z" fill="#2F2E41"/>
<path d="M597.29 200.025L587.516 205.995L598.218 223.497L607.992 217.527L597.29 200.025Z" fill="#2F2E41"/>
<path d="M621.385 213.818C625.883 211.07 628.694 207.476 627.663 205.79C626.632 204.104 622.15 204.965 617.652 207.713C613.154 210.46 610.343 214.054 611.374 215.74C612.405 217.426 616.887 216.566 621.385 213.818Z" fill="#2F2E41"/>
<path d="M601.589 225.351C606.087 222.603 608.898 219.009 607.867 217.323C606.836 215.637 602.354 216.498 597.856 219.246C593.358 221.993 590.547 225.587 591.578 227.273C592.609 228.959 597.091 228.098 601.589 225.351Z" fill="#2F2E41"/>
<path d="M569.499 162.228C572.064 159.666 567.524 150.968 559.359 142.801C551.194 134.633 542.495 130.089 539.929 132.651C537.364 135.213 541.904 143.911 550.069 152.078C558.234 160.246 566.933 164.79 569.499 162.228Z" fill="#2F2E41"/>
<path d="M641.676 200.487C644.655 198.419 641.728 189.055 635.139 179.571C628.551 170.087 620.794 164.075 617.816 166.142C614.837 168.21 617.763 177.574 624.352 187.058C630.941 196.542 638.697 202.554 641.676 200.487Z" fill="#2F2E41"/>
<path d="M579.153 170.835C586.27 170.835 592.039 165.068 592.039 157.955C592.039 150.842 586.27 145.076 579.153 145.076C572.036 145.076 566.267 150.842 566.267 157.955C566.267 165.068 572.036 170.835 579.153 170.835Z" fill="white"/>
<path d="M574.776 157.873C577.148 157.873 579.071 155.951 579.071 153.58C579.071 151.209 577.148 149.287 574.776 149.287C572.403 149.287 570.48 151.209 570.48 153.58C570.48 155.951 572.403 157.873 574.776 157.873Z" fill="#3F3D56"/>
<path d="M562.559 179.439C560.116 183.441 563.371 188.854 569.831 191.53C576.291 194.206 583.508 193.132 585.952 189.131L585.961 189.116C588.398 185.112 583.664 182.117 577.202 179.445C570.74 176.772 564.996 175.435 562.559 179.439Z" fill="white"/>
<path d="M578.048 121.229C581.414 107.678 596.275 99.7031 611.24 103.417C626.206 107.131 635.608 121.127 632.242 134.678C628.875 148.23 617.706 148.273 602.74 144.559C587.775 140.845 574.681 134.78 578.048 121.229Z" fill="#E6E6E6"/>
<path d="M709.125 266H0.875462C0.643275 266 0.420597 265.908 0.256416 265.744C0.0922353 265.58 0 265.357 0 265.125C0 264.893 0.0922353 264.67 0.256416 264.506C0.420597 264.342 0.643275 264.25 0.875462 264.25H709.125C709.357 264.25 709.579 264.342 709.744 264.506C709.908 264.67 710 264.893 710 265.125C710 265.357 709.908 265.58 709.744 265.744C709.579 265.908 709.357 266 709.125 266Z" fill="#CBCBCB"/>
</svg>
