<svg width="745" height="538" viewBox="0 0 745 538" fill="none" xmlns="http://www.w3.org/2000/svg">
<g clip-path="url(#clip0)">
<path d="M670.397 346.171H233.302C231.446 346.171 229.666 346.908 228.353 348.22C227.041 349.532 226.304 351.312 226.304 353.167C226.304 355.023 227.041 356.802 228.353 358.114C229.666 359.426 231.446 360.163 233.302 360.163H245.682V527.522C245.682 529.378 246.42 531.157 247.732 532.469C249.044 533.781 250.824 534.518 252.68 534.518C254.536 534.518 256.316 533.781 257.628 532.469C258.941 531.157 259.678 529.378 259.678 527.522L259.784 360.163H642.944V527.522C642.944 529.378 643.681 531.157 644.993 532.469C646.306 533.781 648.086 534.518 649.942 534.518C651.798 534.518 653.578 533.781 654.89 532.469C656.202 531.157 656.94 529.378 656.94 527.522V363.852L658.975 360.163H670.397C672.253 360.163 674.033 359.426 675.345 358.114C676.657 356.802 677.395 355.023 677.395 353.167C677.395 351.312 676.657 349.532 675.345 348.22C674.033 346.908 672.253 346.171 670.397 346.171V346.171Z" fill="#CCCCCC"/>
<path d="M475.631 349.833H343.23C340.667 349.83 338.209 348.81 336.396 346.998C334.583 345.186 333.563 342.729 333.561 340.166V267.293C333.563 264.73 334.583 262.273 336.396 260.461C338.209 258.648 340.667 257.629 343.23 257.626H475.631C478.195 257.629 480.653 258.648 482.466 260.461C484.278 262.273 485.298 264.73 485.301 267.293V340.166C485.298 342.729 484.278 345.186 482.466 346.998C480.653 348.81 478.195 349.83 475.631 349.833V349.833Z" fill="#3F3D56"/>
<path d="M475.63 265.066H343.23C342.64 265.067 342.074 265.302 341.656 265.72C341.238 266.137 341.003 266.703 341.002 267.294V340.168C341.003 340.758 341.238 341.324 341.656 341.742C342.074 342.159 342.64 342.394 343.23 342.396H475.63C476.22 342.394 476.787 342.159 477.204 341.742C477.622 341.324 477.857 340.758 477.858 340.168V267.294C477.857 266.703 477.622 266.137 477.204 265.72C476.787 265.302 476.22 265.067 475.63 265.066V265.066Z" fill="white"/>
<path d="M420.723 316.66C420.723 316.66 404.873 313.009 396.156 319.703C387.438 326.396 407.251 341.61 407.251 341.61L420.723 316.66Z" fill="#2F2E41"/>
<path d="M410.207 309.761C418.464 309.761 425.157 303.07 425.157 294.815C425.157 286.561 418.464 279.869 410.207 279.869C401.95 279.869 395.256 286.561 395.256 294.815C395.256 303.07 401.95 309.761 410.207 309.761Z" fill="#A0616A"/>
<path d="M398.646 273.834C399.643 272.143 401.088 270.759 402.822 269.837C404.556 268.915 406.511 268.49 408.472 268.608C410.522 268.865 412.523 269.425 414.41 270.27L424.183 274.081C426.712 275.067 429.482 276.276 430.579 278.758C431.598 281.061 430.838 283.722 430.069 286.121L426.412 297.522C426.007 294.941 425.312 292.415 424.34 289.991C423.352 287.55 421.567 285.515 419.275 284.217C416.737 282.916 413.744 282.942 410.894 283.08C406.858 283.274 402.469 283.787 399.602 286.633C398.079 288.25 397.047 290.265 396.625 292.444C396.21 294.612 396.001 296.815 396.001 299.022C394.346 296.178 392.952 293.19 391.836 290.094C390.917 287.789 390.394 285.346 390.288 282.867C390.192 280.367 391.022 277.92 392.618 275.993C393.429 275.052 394.486 274.355 395.671 273.982C396.856 273.609 398.122 273.575 399.326 273.882L398.646 273.834Z" fill="#2F2E41"/>
<path d="M445.905 329.62C445.765 329.116 445.479 328.663 445.082 328.321C444.686 327.978 444.197 327.76 443.677 327.694C443.643 327.67 443.607 327.648 443.569 327.629L421.25 315.125C420.613 314.768 419.862 314.67 419.155 314.852C418.447 315.034 417.837 315.482 417.452 316.102L411.347 325.983L402.153 316.791L402.007 316.645C401.535 316.173 400.912 315.883 400.247 315.825C399.583 315.767 398.919 315.945 398.372 316.327L380.029 329.168C379.997 329.168 379.964 329.179 379.932 329.179C379.054 329.325 378.253 329.767 377.66 330.43C377.066 331.093 376.717 331.939 376.67 332.828L376.196 342.396H449.447L445.905 329.62Z" fill="#AAA5F7"/>
<path d="M486.788 340.909H472.655C472.655 340.515 472.498 340.137 472.22 339.858C471.941 339.579 471.562 339.422 471.168 339.422H466.705C466.31 339.422 465.932 339.579 465.653 339.858C465.374 340.137 465.217 340.515 465.217 340.909H460.754C460.754 340.515 460.597 340.137 460.318 339.858C460.039 339.579 459.661 339.422 459.266 339.422H454.803C454.409 339.422 454.03 339.579 453.752 339.858C453.473 340.137 453.316 340.515 453.316 340.909H448.853C448.853 340.515 448.696 340.137 448.417 339.858C448.138 339.579 447.76 339.422 447.365 339.422H442.902C442.508 339.422 442.129 339.579 441.85 339.858C441.571 340.137 441.415 340.515 441.415 340.909H436.952C436.952 340.515 436.795 340.137 436.516 339.858C436.237 339.579 435.859 339.422 435.464 339.422H431.001C430.607 339.422 430.228 339.579 429.949 339.858C429.67 340.137 429.513 340.515 429.513 340.909H425.05C425.05 340.515 424.894 340.137 424.615 339.858C424.336 339.579 423.957 339.422 423.563 339.422H419.1C418.705 339.422 418.327 339.579 418.048 339.858C417.769 340.137 417.612 340.515 417.612 340.909H413.149C413.149 340.515 412.992 340.137 412.713 339.858C412.435 339.579 412.056 339.422 411.662 339.422H407.199C406.804 339.422 406.426 339.579 406.147 339.858C405.868 340.137 405.711 340.515 405.711 340.909H401.248C401.248 340.515 401.091 340.137 400.812 339.858C400.533 339.579 400.155 339.422 399.76 339.422H395.297C394.903 339.422 394.524 339.579 394.245 339.858C393.967 340.137 393.81 340.515 393.81 340.909H389.347C389.347 340.515 389.19 340.137 388.911 339.858C388.632 339.579 388.254 339.422 387.859 339.422H383.396C383.002 339.422 382.623 339.579 382.344 339.858C382.065 340.137 381.909 340.515 381.909 340.909H377.446C377.446 340.515 377.289 340.137 377.01 339.858C376.731 339.579 376.352 339.422 375.958 339.422H371.495C371.1 339.422 370.722 339.579 370.443 339.858C370.164 340.137 370.007 340.515 370.007 340.909H365.544C365.544 340.515 365.388 340.137 365.109 339.858C364.83 339.579 364.451 339.422 364.057 339.422H359.594C359.199 339.422 358.821 339.579 358.542 339.858C358.263 340.137 358.106 340.515 358.106 340.909H353.643C353.643 340.515 353.486 340.137 353.207 339.858C352.928 339.579 352.55 339.422 352.156 339.422H347.693C347.298 339.422 346.92 339.579 346.641 339.858C346.362 340.137 346.205 340.515 346.205 340.909H332.072C330.89 340.911 329.756 341.382 328.921 342.219C328.085 343.055 327.616 344.189 327.616 345.371C327.616 346.553 328.085 347.687 328.921 348.523C329.756 349.36 330.89 349.831 332.072 349.833H486.788C487.972 349.833 489.107 349.363 489.944 348.526C490.781 347.689 491.251 346.554 491.251 345.371C491.251 344.188 490.781 343.053 489.944 342.216C489.107 341.379 487.972 340.909 486.788 340.909V340.909Z" fill="#3F3D56"/>
<path d="M309.066 315V344.625H234.822C232.833 344.694 230.85 344.362 228.992 343.649C227.134 342.935 225.438 341.855 224.007 340.473C222.575 339.091 221.437 337.434 220.659 335.603C219.881 333.771 219.48 331.802 219.48 329.812C219.48 327.822 219.881 325.853 220.659 324.021C221.437 322.19 222.575 320.533 224.007 319.151C225.438 317.769 227.134 316.689 228.992 315.975C230.85 315.262 232.833 314.93 234.822 315H309.066Z" fill="#F2F2F2"/>
<path d="M310.89 344.397C310.89 344.699 310.769 344.989 310.556 345.202C310.342 345.416 310.052 345.536 309.75 345.536H233.5C229.358 345.536 225.387 343.891 222.458 340.964C219.53 338.036 217.885 334.066 217.885 329.926C217.885 325.786 219.53 321.815 222.458 318.888C225.387 315.96 229.358 314.316 233.5 314.316H309.75C310.052 314.316 310.342 314.436 310.556 314.65C310.77 314.863 310.89 315.153 310.89 315.455C310.89 315.757 310.77 316.047 310.556 316.261C310.342 316.475 310.052 316.595 309.75 316.595H233.5C229.965 316.598 226.576 318.004 224.078 320.504C221.58 323.003 220.176 326.392 220.176 329.926C220.176 333.46 221.58 336.849 224.078 339.348C226.576 341.848 229.965 343.254 233.5 343.257H309.75C310.052 343.257 310.342 343.377 310.556 343.591C310.769 343.805 310.89 344.094 310.89 344.397V344.397Z" fill="#AAA5F7"/>
<path d="M309.066 321.836H229.282C229.252 321.836 229.222 321.83 229.195 321.819C229.167 321.808 229.141 321.791 229.12 321.77C229.099 321.749 229.082 321.723 229.07 321.696C229.059 321.668 229.053 321.638 229.053 321.608C229.053 321.578 229.059 321.548 229.07 321.521C229.082 321.493 229.099 321.468 229.12 321.446C229.141 321.425 229.167 321.409 229.195 321.397C229.222 321.386 229.252 321.38 229.282 321.38H309.066C309.126 321.381 309.184 321.405 309.226 321.448C309.268 321.49 309.292 321.548 309.292 321.608C309.292 321.668 309.268 321.726 309.226 321.769C309.184 321.811 309.126 321.836 309.066 321.836V321.836Z" fill="#CCCCCC"/>
<path d="M309.066 327.305H229.282C229.252 327.305 229.222 327.3 229.195 327.288C229.167 327.277 229.141 327.26 229.12 327.239C229.099 327.218 229.082 327.193 229.07 327.165C229.059 327.137 229.053 327.107 229.053 327.077C229.053 327.047 229.059 327.018 229.07 326.99C229.082 326.962 229.099 326.937 229.12 326.916C229.141 326.895 229.167 326.878 229.195 326.866C229.222 326.855 229.252 326.849 229.282 326.85H309.066C309.126 326.85 309.184 326.874 309.226 326.917C309.268 326.959 309.292 327.017 309.292 327.077C309.292 327.138 309.268 327.195 309.226 327.238C309.184 327.281 309.126 327.305 309.066 327.305V327.305Z" fill="#CCCCCC"/>
<path d="M309.066 332.774H229.282C229.252 332.775 229.222 332.769 229.195 332.758C229.167 332.746 229.141 332.729 229.12 332.708C229.099 332.687 229.082 332.662 229.07 332.634C229.059 332.606 229.053 332.577 229.053 332.547C229.053 332.517 229.059 332.487 229.07 332.459C229.082 332.431 229.099 332.406 229.12 332.385C229.141 332.364 229.167 332.347 229.195 332.336C229.222 332.324 229.252 332.319 229.282 332.319H309.066C309.126 332.319 309.184 332.343 309.226 332.386C309.268 332.429 309.292 332.486 309.292 332.547C309.292 332.607 309.268 332.664 309.226 332.707C309.184 332.75 309.126 332.774 309.066 332.774V332.774Z" fill="#CCCCCC"/>
<path d="M309.066 338.244H229.282C229.252 338.244 229.222 338.238 229.195 338.227C229.167 338.215 229.141 338.199 229.12 338.177C229.099 338.156 229.082 338.131 229.07 338.103C229.059 338.076 229.053 338.046 229.053 338.016C229.053 337.986 229.059 337.956 229.07 337.928C229.082 337.9 229.099 337.875 229.12 337.854C229.141 337.833 229.167 337.816 229.195 337.805C229.222 337.793 229.252 337.788 229.282 337.788H309.066C309.126 337.788 309.184 337.813 309.226 337.855C309.268 337.898 309.292 337.956 309.292 338.016C309.292 338.076 309.268 338.134 309.226 338.176C309.184 338.219 309.126 338.243 309.066 338.244Z" fill="#CCCCCC"/>
<path d="M295.071 283.788V313.413H220.827C218.838 313.482 216.855 313.15 214.997 312.437C213.139 311.724 211.443 310.644 210.012 309.261C208.58 307.879 207.441 306.223 206.664 304.391C205.886 302.559 205.485 300.59 205.485 298.6C205.485 296.611 205.886 294.641 206.664 292.81C207.441 290.978 208.58 289.322 210.012 287.939C211.443 286.557 213.139 285.477 214.997 284.764C216.855 284.051 218.838 283.719 220.827 283.788H295.071Z" fill="#F2F2F2"/>
<path d="M296.895 313.185C296.894 313.487 296.774 313.777 296.561 313.99C296.347 314.204 296.057 314.324 295.755 314.324H219.504C217.454 314.324 215.423 313.921 213.529 313.136C211.634 312.352 209.913 311.202 208.463 309.752C207.013 308.303 205.863 306.582 205.078 304.688C204.294 302.794 203.89 300.764 203.89 298.714C203.89 296.664 204.294 294.634 205.078 292.74C205.863 290.847 207.013 289.126 208.463 287.676C209.913 286.227 211.634 285.077 213.529 284.292C215.423 283.508 217.454 283.104 219.504 283.104H295.755C296.057 283.104 296.347 283.224 296.561 283.438C296.774 283.652 296.895 283.941 296.895 284.244C296.895 284.546 296.774 284.836 296.561 285.049C296.347 285.263 296.057 285.383 295.755 285.383H219.504C215.97 285.386 212.581 286.792 210.083 289.292C207.584 291.792 206.181 295.181 206.181 298.714C206.181 302.248 207.584 305.637 210.083 308.137C212.581 310.636 215.97 312.042 219.504 312.045H295.755C296.057 312.046 296.347 312.166 296.561 312.379C296.774 312.593 296.894 312.883 296.895 313.185V313.185Z" fill="#3F3D56"/>
<path d="M295.071 290.624H215.287C215.257 290.625 215.227 290.619 215.199 290.607C215.172 290.596 215.146 290.579 215.125 290.558C215.104 290.537 215.087 290.512 215.075 290.484C215.064 290.456 215.058 290.427 215.058 290.396C215.058 290.366 215.064 290.337 215.075 290.309C215.087 290.281 215.104 290.256 215.125 290.235C215.146 290.214 215.172 290.197 215.199 290.185C215.227 290.174 215.257 290.168 215.287 290.169H295.071C295.131 290.169 295.189 290.193 295.231 290.236C295.273 290.279 295.297 290.336 295.297 290.396C295.297 290.457 295.273 290.514 295.231 290.557C295.189 290.6 295.131 290.624 295.071 290.624V290.624Z" fill="#CCCCCC"/>
<path d="M295.071 296.094H215.287C215.257 296.094 215.227 296.088 215.199 296.077C215.172 296.065 215.146 296.049 215.125 296.027C215.104 296.006 215.087 295.981 215.075 295.953C215.064 295.926 215.058 295.896 215.058 295.866C215.058 295.836 215.064 295.806 215.075 295.778C215.087 295.75 215.104 295.725 215.125 295.704C215.146 295.683 215.172 295.666 215.199 295.655C215.227 295.643 215.257 295.638 215.287 295.638H295.071C295.131 295.638 295.189 295.662 295.231 295.705C295.273 295.748 295.297 295.806 295.297 295.866C295.297 295.926 295.273 295.984 295.231 296.026C295.189 296.069 295.131 296.093 295.071 296.094V296.094Z" fill="#CCCCCC"/>
<path d="M295.071 301.563H215.287C215.257 301.563 215.227 301.557 215.199 301.546C215.172 301.535 215.146 301.518 215.125 301.497C215.104 301.475 215.087 301.45 215.075 301.422C215.064 301.395 215.058 301.365 215.058 301.335C215.058 301.305 215.064 301.275 215.075 301.247C215.087 301.22 215.104 301.194 215.125 301.173C215.146 301.152 215.172 301.135 215.199 301.124C215.227 301.113 215.257 301.107 215.287 301.107H295.071C295.131 301.107 295.189 301.132 295.231 301.174C295.273 301.217 295.297 301.275 295.297 301.335C295.297 301.395 295.273 301.453 295.231 301.496C295.189 301.538 295.131 301.562 295.071 301.563V301.563Z" fill="#CCCCCC"/>
<path d="M295.071 307.032H215.287C215.257 307.032 215.227 307.026 215.199 307.015C215.172 307.004 215.146 306.987 215.125 306.966C215.104 306.945 215.087 306.919 215.075 306.892C215.064 306.864 215.058 306.834 215.058 306.804C215.058 306.774 215.064 306.744 215.075 306.717C215.087 306.689 215.104 306.664 215.125 306.642C215.146 306.621 215.172 306.604 215.199 306.593C215.227 306.582 215.257 306.576 215.287 306.576H295.071C295.131 306.577 295.189 306.601 295.231 306.644C295.273 306.686 295.297 306.744 295.297 306.804C295.297 306.864 295.273 306.922 295.231 306.965C295.189 307.007 295.131 307.032 295.071 307.032Z" fill="#CCCCCC"/>
<path d="M381.439 449.925V424.095C381.439 422.953 380.985 421.858 380.177 421.051C379.37 420.243 378.275 419.79 377.132 419.79H279.163C278.021 419.79 276.925 420.243 276.118 421.051C275.31 421.858 274.856 422.953 274.856 424.095V449.925H381.439Z" fill="#CCCCCC"/>
<path d="M381.439 459.612H274.856V492.976H381.439V459.612Z" fill="#CCCCCC"/>
<path d="M274.856 502.662V528.493C274.856 529.634 275.31 530.729 276.118 531.537C276.925 532.344 278.021 532.798 279.163 532.798H377.132C378.275 532.798 379.37 532.344 380.177 531.537C380.985 530.729 381.439 529.634 381.439 528.493V502.662H274.856Z" fill="#CCCCCC"/>
<path d="M327.61 439.163C329.393 439.163 330.839 437.717 330.839 435.934C330.839 434.151 329.393 432.705 327.61 432.705C325.826 432.705 324.38 434.151 324.38 435.934C324.38 437.717 325.826 439.163 327.61 439.163Z" fill="white"/>
<path d="M327.61 482.213C329.393 482.213 330.839 480.768 330.839 478.984C330.839 477.201 329.393 475.756 327.61 475.756C325.826 475.756 324.38 477.201 324.38 478.984C324.38 480.768 325.826 482.213 327.61 482.213Z" fill="white"/>
<path d="M327.783 524.352C329.566 524.352 331.012 522.907 331.012 521.123C331.012 519.34 329.566 517.895 327.783 517.895C325.999 517.895 324.553 519.34 324.553 521.123C324.553 522.907 325.999 524.352 327.783 524.352Z" fill="white"/>
<path d="M369.355 390.338V419.963H295.111C293.122 420.032 291.139 419.7 289.281 418.987C287.423 418.274 285.727 417.194 284.296 415.812C282.864 414.429 281.726 412.773 280.948 410.941C280.17 409.11 279.77 407.14 279.77 405.151C279.77 403.161 280.17 401.191 280.948 399.36C281.726 397.528 282.864 395.872 284.296 394.49C285.727 393.107 287.423 392.027 289.281 391.314C291.139 390.601 293.122 390.269 295.111 390.338H369.355Z" fill="#F2F2F2"/>
<path d="M371.179 419.735C371.179 420.037 371.059 420.327 370.845 420.541C370.631 420.754 370.341 420.874 370.039 420.875H293.789C291.737 420.876 289.705 420.474 287.809 419.69C285.913 418.906 284.19 417.757 282.739 416.307C281.288 414.857 280.136 413.136 279.351 411.241C278.565 409.346 278.161 407.315 278.161 405.264C278.161 403.213 278.565 401.183 279.351 399.288C280.136 397.393 281.288 395.672 282.739 394.222C284.19 392.772 285.913 391.623 287.809 390.839C289.705 390.055 291.737 389.653 293.789 389.654H370.039C370.341 389.654 370.631 389.774 370.845 389.988C371.059 390.202 371.179 390.492 371.179 390.794C371.179 391.096 371.059 391.386 370.845 391.6C370.631 391.813 370.341 391.933 370.039 391.933H293.789C290.254 391.936 286.865 393.342 284.367 395.842C281.869 398.342 280.466 401.731 280.466 405.264C280.466 408.798 281.869 412.187 284.367 414.687C286.865 417.187 290.254 418.593 293.789 418.596H370.039C370.341 418.596 370.631 418.716 370.845 418.93C371.059 419.143 371.179 419.433 371.179 419.735V419.735Z" fill="#3F3D56"/>
<path d="M369.355 397.175H289.571C289.541 397.175 289.511 397.169 289.484 397.158C289.456 397.146 289.43 397.13 289.409 397.108C289.388 397.087 289.371 397.062 289.359 397.034C289.348 397.007 289.342 396.977 289.342 396.947C289.342 396.917 289.348 396.887 289.359 396.859C289.371 396.831 289.388 396.806 289.409 396.785C289.43 396.764 289.456 396.747 289.484 396.736C289.511 396.724 289.541 396.719 289.571 396.719H369.355C369.415 396.719 369.473 396.744 369.515 396.786C369.557 396.829 369.581 396.887 369.581 396.947C369.581 397.007 369.557 397.065 369.515 397.107C369.473 397.15 369.415 397.174 369.355 397.175V397.175Z" fill="#CCCCCC"/>
<path d="M369.355 402.644H289.571C289.541 402.644 289.511 402.638 289.484 402.627C289.456 402.616 289.43 402.599 289.409 402.578C289.388 402.556 289.371 402.531 289.359 402.504C289.348 402.476 289.342 402.446 289.342 402.416C289.342 402.386 289.348 402.356 289.359 402.328C289.371 402.301 289.388 402.275 289.409 402.254C289.43 402.233 289.456 402.216 289.484 402.205C289.511 402.194 289.541 402.188 289.571 402.188H369.355C369.415 402.189 369.473 402.213 369.515 402.255C369.557 402.298 369.581 402.356 369.581 402.416C369.581 402.476 369.557 402.534 369.515 402.577C369.473 402.619 369.415 402.643 369.355 402.644V402.644Z" fill="#CCCCCC"/>
<path d="M369.355 408.113H289.571C289.541 408.113 289.511 408.108 289.484 408.096C289.456 408.085 289.43 408.068 289.409 408.047C289.388 408.026 289.371 408.001 289.359 407.973C289.348 407.945 289.342 407.915 289.342 407.885C289.342 407.855 289.348 407.825 289.359 407.798C289.371 407.77 289.388 407.745 289.409 407.724C289.43 407.702 289.456 407.686 289.484 407.674C289.511 407.663 289.541 407.657 289.571 407.657H369.355C369.415 407.658 369.473 407.682 369.515 407.725C369.557 407.767 369.581 407.825 369.581 407.885C369.581 407.945 369.557 408.003 369.515 408.046C369.473 408.089 369.415 408.113 369.355 408.113V408.113Z" fill="#CCCCCC"/>
<path d="M369.355 413.582H289.571C289.541 413.582 289.511 413.577 289.484 413.565C289.456 413.554 289.43 413.537 289.409 413.516C289.388 413.495 289.371 413.47 289.359 413.442C289.348 413.414 289.342 413.384 289.342 413.354C289.342 413.324 289.348 413.295 289.359 413.267C289.371 413.239 289.388 413.214 289.409 413.193C289.43 413.172 289.456 413.155 289.484 413.143C289.511 413.132 289.541 413.126 289.571 413.126H369.355C369.415 413.127 369.473 413.151 369.515 413.194C369.557 413.236 369.581 413.294 369.581 413.354C369.581 413.415 369.557 413.472 369.515 413.515C369.473 413.558 369.415 413.582 369.355 413.582V413.582Z" fill="#CCCCCC"/>
<path d="M269.267 196.98V8.09506C269.269 5.94887 270.123 3.89128 271.641 2.37369C273.159 0.856104 275.217 0.00244123 277.364 0H426.718C428.865 0.00245544 430.923 0.856124 432.441 2.37371C433.959 3.89129 434.813 5.94888 434.815 8.09506V196.98C434.813 199.126 433.959 201.183 432.441 202.701C430.923 204.219 428.865 205.072 426.718 205.075H277.364C275.217 205.072 273.159 204.219 271.641 202.701C270.123 201.183 269.269 199.126 269.267 196.98V196.98ZM277.364 1.79891C275.694 1.80077 274.093 2.46472 272.913 3.64507C271.732 4.82543 271.068 6.42579 271.066 8.09506V196.98C271.068 198.649 271.732 200.249 272.913 201.43C274.093 202.61 275.694 203.274 277.364 203.276H426.718C428.388 203.274 429.988 202.61 431.169 201.43C432.35 200.249 433.014 198.649 433.016 196.98V8.09506C433.014 6.4258 432.35 4.82543 431.169 3.64507C429.988 2.46472 428.388 1.80078 426.718 1.79891H277.364Z" fill="#E6E6E6"/>
<path d="M360.416 86.7445V47.9606C360.417 46.8875 360.844 45.8586 361.603 45.0998C362.362 44.341 363.391 43.9142 364.465 43.913H397.341C398.414 43.9142 399.443 44.341 400.202 45.0998C400.961 45.8586 401.388 46.8875 401.389 47.9606V86.7445C401.388 87.8176 400.961 88.8464 400.202 89.6052C399.443 90.364 398.414 90.7909 397.341 90.7921H364.465C363.391 90.7909 362.362 90.364 361.603 89.6052C360.844 88.8464 360.417 87.8176 360.416 86.7445V86.7445Z" fill="#AAA5F7"/>
<path d="M296.535 104.734V65.9496C296.536 64.8765 296.963 63.8477 297.722 63.0889C298.481 62.3301 299.511 61.9033 300.584 61.9021H333.46C334.533 61.9033 335.562 62.3301 336.321 63.0889C337.08 63.8477 337.507 64.8765 337.509 65.9496V104.734C337.507 105.807 337.08 106.836 336.321 107.594C335.562 108.353 334.533 108.78 333.46 108.781H300.584C299.51 108.78 298.481 108.353 297.722 107.594C296.963 106.835 296.536 105.807 296.535 104.734V104.734Z" fill="#CCCCCC"/>
<path d="M347.819 159.6V120.816C347.821 119.743 348.247 118.714 349.007 117.955C349.766 117.196 350.795 116.77 351.868 116.768H384.744C385.817 116.77 386.846 117.196 387.605 117.955C388.364 118.714 388.791 119.743 388.793 120.816V159.6C388.791 160.673 388.364 161.702 387.605 162.461C386.846 163.22 385.817 163.646 384.744 163.647H351.868C350.795 163.646 349.766 163.22 349.007 162.461C348.247 161.702 347.821 160.673 347.819 159.6V159.6Z" fill="#FF6584"/>
<path d="M544.284 336.917H510.457C510.136 336.917 509.82 336.991 509.532 337.133L500.994 341.405C500.713 341.525 500.474 341.724 500.305 341.979C500.137 342.233 500.047 342.532 500.047 342.837C500.047 343.142 500.137 343.441 500.305 343.695C500.474 343.95 500.713 344.149 500.994 344.268L509.532 348.541C509.82 348.683 510.136 348.757 510.457 348.756H544.284C544.75 348.783 545.208 348.626 545.559 348.317C545.909 348.009 546.124 347.575 546.157 347.11V338.564C546.124 338.099 545.909 337.665 545.559 337.356C545.208 337.048 544.75 336.89 544.284 336.917Z" fill="#3F3D56"/>
<path d="M546.158 338.564V347.11C546.125 347.575 545.91 348.009 545.559 348.317C545.208 348.626 544.75 348.783 544.284 348.756H537.545V336.917H544.284C544.75 336.89 545.208 337.048 545.559 337.356C545.91 337.665 546.125 338.099 546.158 338.564V338.564Z" fill="#AAA5F7"/>
<path d="M544.03 272.987C545.562 272.326 547.216 271.996 548.885 272.019C550.554 272.042 552.199 272.417 553.712 273.119C555.226 273.822 556.574 274.836 557.668 276.096C558.762 277.356 559.577 278.832 560.061 280.429C560.211 280.935 560.326 281.451 560.405 281.973L607.709 305.423L618.656 298.171L632.276 313.847L615.561 327.418C613.551 329.038 611.073 329.966 608.493 330.066C605.913 330.165 603.37 329.43 601.241 327.971L553.248 294.791C552.891 294.943 552.526 295.076 552.155 295.19C550.558 295.673 548.876 295.813 547.221 295.601C545.566 295.389 543.974 294.83 542.55 293.96C541.126 293.09 539.901 291.929 538.957 290.553C538.013 289.177 537.371 287.617 537.072 285.976C536.983 285.5 536.925 285.018 536.897 284.534C536.764 282.112 537.376 279.706 538.651 277.642C539.926 275.578 541.803 273.953 544.03 272.987V272.987Z" fill="#FFB8B8"/>
<path d="M642.553 417.367H590.866C590.866 418.852 537.596 420.057 537.596 420.057C536.76 420.687 535.998 421.409 535.325 422.21C533.301 424.622 532.195 427.672 532.202 430.82V432.973C532.203 436.54 533.622 439.961 536.145 442.484C538.669 445.007 542.091 446.425 545.66 446.426H642.553C646.121 446.423 649.542 445.004 652.065 442.482C654.588 439.96 656.007 436.54 656.01 432.973V430.82C656.005 427.253 654.586 423.834 652.063 421.313C649.54 418.791 646.12 417.372 642.553 417.367V417.367Z" fill="#3F3D56"/>
<path d="M586.33 536.298H600.325V445.892H586.33V536.298Z" fill="#3F3D56"/>
<path d="M546.496 535.806C546.496 537.318 567.704 536.391 593.866 536.391C620.028 536.391 641.236 537.318 641.236 535.806C641.236 534.294 620.028 522.306 593.866 522.306C567.704 522.306 546.496 534.294 546.496 535.806Z" fill="#3F3D56"/>
<path d="M559.13 525.21L545.932 525.209L539.652 490.987L559.132 490.988L559.13 525.21Z" fill="#FFB8B8"/>
<path d="M562.497 538L519.938 537.998V537.46C519.938 535.286 520.367 533.132 521.199 531.123C522.032 529.114 523.252 527.288 524.79 525.751C526.328 524.213 528.155 522.993 530.164 522.161C532.174 521.329 534.328 520.901 536.503 520.901H536.504L562.497 520.902L562.497 538Z" fill="#2F2E41"/>
<path d="M539.389 503.988L513.076 445.001C510.88 440.029 510.637 434.412 512.396 429.27C514.155 424.127 517.788 419.835 522.57 417.25L579.644 386.654L605.688 384.44L629.712 382.257L629.885 382.55C630.107 382.924 635.272 391.843 631.78 401.623C629.132 409.041 622.243 414.836 611.305 418.845C585.774 428.204 556.281 436.202 544.786 439.206C544.278 439.336 543.804 439.572 543.393 439.898C542.983 440.225 542.646 440.634 542.406 441.1C542.165 441.561 542.021 442.066 541.985 442.584C541.949 443.103 542.02 443.623 542.195 444.112L566.64 499.018C566.895 499.714 566.987 500.46 566.909 501.197C566.83 501.935 566.583 502.644 566.187 503.271C565.791 503.898 565.256 504.426 564.623 504.814C563.991 505.201 563.278 505.438 562.539 505.507L544.273 506.836C544.118 506.851 543.964 506.859 543.81 506.859C542.874 506.858 541.959 506.587 541.175 506.078C540.39 505.568 539.77 504.842 539.389 503.988V503.988Z" fill="#2F2E41"/>
<path d="M565.59 525.21L552.392 525.209L546.112 490.987L565.592 490.988L565.59 525.21Z" fill="#FFB8B8"/>
<path d="M568.956 538L526.397 537.998V537.46C526.397 535.286 526.826 533.132 527.658 531.123C528.491 529.114 529.711 527.288 531.249 525.751C532.787 524.213 534.614 522.993 536.623 522.161C538.633 521.329 540.787 520.901 542.962 520.901H542.963L568.956 520.902L568.956 538Z" fill="#2F2E41"/>
<path d="M546.925 507.217L520.613 448.229C518.416 443.258 518.173 437.641 519.932 432.498C521.692 427.356 525.324 423.064 530.107 420.479L587.18 389.883L613.224 387.668L637.248 385.485L637.421 385.779C637.643 386.153 642.808 395.072 639.316 404.852C636.668 412.27 629.779 418.065 618.841 422.074C593.31 431.433 563.818 439.431 552.323 442.435C551.814 442.565 551.34 442.801 550.929 443.127C550.519 443.454 550.183 443.863 549.942 444.329C549.701 444.789 549.557 445.295 549.521 445.813C549.485 446.331 549.556 446.852 549.731 447.341L574.176 502.247C574.432 502.943 574.524 503.689 574.445 504.426C574.366 505.164 574.12 505.873 573.723 506.5C573.327 507.127 572.792 507.655 572.16 508.042C571.527 508.43 570.814 508.667 570.075 508.736L551.809 510.065C551.654 510.08 551.5 510.087 551.346 510.087C550.411 510.087 549.495 509.816 548.711 509.306C547.926 508.797 547.306 508.071 546.925 507.217V507.217Z" fill="#2F2E41"/>
<path d="M533.811 327.017C522.754 312.314 514.013 296.006 507.891 278.659C507.537 277.621 507.562 276.491 507.963 275.47C508.363 274.45 509.113 273.604 510.079 273.084L547.916 252.816C548.528 252.486 549.207 252.3 549.902 252.271C550.597 252.243 551.29 252.374 551.927 252.654C552.575 252.935 553.151 253.362 553.61 253.899C554.07 254.437 554.4 255.073 554.576 255.758C558.98 272.474 567.259 287.919 578.741 300.843C579.214 301.369 579.56 301.996 579.754 302.676C579.948 303.356 579.984 304.072 579.859 304.768C579.739 305.453 579.465 306.101 579.056 306.664C578.648 307.227 578.116 307.69 577.502 308.016L539.665 328.284C538.697 328.8 537.577 328.956 536.505 328.724C535.433 328.492 534.478 327.887 533.811 327.017V327.017Z" fill="#CCCCCC"/>
<path d="M536.393 325.077C536.596 325.331 536.882 325.506 537.201 325.572C537.52 325.638 537.852 325.591 538.139 325.438L575.976 305.17C576.16 305.074 576.319 304.937 576.441 304.77C576.563 304.602 576.644 304.409 576.679 304.204C576.718 303.989 576.707 303.767 576.647 303.556C576.586 303.346 576.477 303.152 576.329 302.99C564.508 289.685 555.986 273.785 551.452 256.576C551.4 256.364 551.299 256.166 551.157 255.999C551.016 255.832 550.837 255.7 550.636 255.613C550.447 255.529 550.24 255.489 550.033 255.497C549.825 255.506 549.623 255.563 549.441 255.663L511.604 275.93C511.318 276.085 511.094 276.335 510.972 276.637C510.851 276.939 510.838 277.274 510.937 277.585C516.949 294.621 525.534 310.638 536.393 325.077V325.077Z" fill="white"/>
<path d="M659.511 321.611L629.878 332.868L622.643 312.777C621.683 310.11 621.696 307.188 622.682 304.53C623.667 301.871 625.561 299.646 628.028 298.248V298.248C630.525 296.834 633.444 296.359 636.26 296.909C639.076 297.458 641.602 298.996 643.383 301.245L659.511 321.611Z" fill="#AAA5F7"/>
<path d="M584.139 401.211C583.515 400.77 582.993 400.201 582.606 399.543C582.219 398.884 581.977 398.151 581.896 397.392C578.1 361.972 580.744 334.254 589.976 312.652C591.603 308.926 594.052 305.617 597.142 302.974C600.231 300.331 603.879 298.422 607.812 297.391L631.766 296.182L631.89 296.242C637.295 298.889 641.703 303.207 644.461 308.555C647.218 313.903 648.178 319.998 647.198 325.935C639.494 346.236 633.043 367.374 637.963 384.426C638.169 385.138 638.229 385.886 638.14 386.622C638.05 387.359 637.813 388.07 637.442 388.713C637.082 389.334 636.599 389.875 636.022 390.302C635.445 390.73 634.786 391.035 634.087 391.198L588.463 402.048C587.724 402.223 586.956 402.24 586.211 402.096C585.465 401.951 584.759 401.65 584.139 401.211Z" fill="#AAA5F7"/>
<path d="M623.772 287.238C638.376 287.238 650.214 275.403 650.214 260.804C650.214 246.205 638.376 234.37 623.772 234.37C609.169 234.37 597.33 246.205 597.33 260.804C597.33 275.403 609.169 287.238 623.772 287.238Z" fill="#FFB8B8"/>
<path d="M550.399 281.741L529.792 290.835C529.008 291.18 528.119 291.199 527.321 290.89C526.522 290.581 525.879 289.968 525.533 289.185L525.023 288.03C524.678 287.247 524.658 286.359 524.967 285.56C525.277 284.762 525.89 284.119 526.673 283.773L547.281 274.679C548.065 274.334 548.953 274.314 549.752 274.623C550.55 274.933 551.193 275.546 551.54 276.329L552.05 277.483C552.395 278.266 552.415 279.155 552.105 279.953C551.796 280.751 551.182 281.394 550.399 281.741V281.741Z" fill="#CCCCCC"/>
<path d="M557.935 295.732L537.328 304.826C536.544 305.171 535.655 305.191 534.857 304.882C534.059 304.572 533.415 303.959 533.069 303.176L532.559 302.022C532.214 301.238 532.194 300.35 532.504 299.552C532.813 298.754 533.427 298.111 534.21 297.764L554.817 288.67C555.601 288.325 556.489 288.305 557.288 288.615C558.086 288.924 558.729 289.537 559.076 290.32L559.586 291.474C559.931 292.258 559.951 293.146 559.641 293.944C559.332 294.743 558.718 295.386 557.935 295.732V295.732Z" fill="#CCCCCC"/>
<path d="M573.828 350.382L527.885 314.148C527.519 314.277 527.147 314.387 526.77 314.477C525.148 314.856 523.465 314.89 521.829 314.577C520.194 314.263 518.643 313.609 517.277 312.657C515.901 311.704 514.746 310.469 513.887 309.033C513.028 307.598 512.485 305.996 512.296 304.334C511.988 301.677 512.587 298.994 513.995 296.72C515.404 294.447 517.54 292.715 520.057 291.808C521.628 291.245 523.3 291.019 524.964 291.147C526.627 291.275 528.245 291.753 529.712 292.549C531.178 293.345 532.46 294.442 533.472 295.768C534.485 297.094 535.206 298.619 535.588 300.243C535.706 300.758 535.789 301.28 535.835 301.806L581.57 328.182L592.951 321.632L605.559 338.133L587.888 350.724C585.819 352.186 583.334 352.943 580.801 352.881C578.268 352.819 575.823 351.943 573.828 350.382V350.382Z" fill="#FFB8B8"/>
<path d="M611.165 343.272L584.951 325.452L597.27 308.009C598.906 305.693 601.308 304.029 604.052 303.312C606.796 302.595 609.706 302.871 612.266 304.091V304.091C614.856 305.325 616.919 307.445 618.083 310.066C619.246 312.688 619.434 315.639 618.612 318.387L611.165 343.272Z" fill="#AAA5F7"/>
<path d="M614.078 256.867C607.281 261.517 598.358 266.297 591.417 261.345C586.859 258.093 585.423 252.072 587.271 246.789C590.595 237.287 599.727 233.104 608.459 229.897C619.811 225.729 632.172 222.412 643.891 225.398C655.61 228.383 665.967 239.726 663.851 251.629C662.15 261.202 653.118 269.167 654.4 278.805C655.69 288.504 666.602 293.61 676.235 295.343C685.868 297.077 696.647 297.634 703.57 304.551C712.402 313.375 710.196 329.147 701.886 338.464C693.576 347.78 681.036 352.003 668.885 354.874C652.785 358.678 635.371 360.677 620.081 354.364C604.79 348.051 592.891 331.058 597.32 315.124C599.191 308.393 603.599 302.705 607.858 297.167C612.118 291.629 616.431 285.838 618.056 279.044C619.41 273.382 618.408 266.808 614.652 262.561C613.969 261.817 613.539 260.877 613.424 259.874C613.309 258.871 613.515 257.857 614.012 256.979L614.078 256.867Z" fill="#2F2E41"/>
</g>
<defs>
<clipPath id="clip0">
<rect width="745" height="538" fill="white"/>
</clipPath>
</defs>
</svg>
