<svg width="549" height="679" viewBox="0 0 549 679" fill="none" xmlns="http://www.w3.org/2000/svg">
<path opacity="0.1" d="M494.957 313C495.211 311.634 494.299 310.367 493.44 309.299L491.678 307.095C491.334 306.645 490.947 306.231 490.522 305.862C489.461 305.013 488.103 304.76 487 304" fill="black"/>
<path d="M544.678 411.425C542.624 409.831 540.209 408.766 537.647 408.326C534.953 407.706 532.202 407.316 529.464 406.884L493.996 401.765C490.416 401.1 486.764 400.906 483.134 401.189C481.317 401.336 479.548 401.843 477.928 402.68C476.309 403.516 474.871 404.666 473.698 406.062C472.639 407.372 472.059 409.005 472.056 410.69C472.255 412.376 472.805 414.002 473.669 415.463C474.01 416.153 474.303 416.866 474.548 417.596C475.052 419.182 475.153 420.884 475.816 422.427C475.976 422.764 476.179 423.079 476.421 423.364C476.427 423.45 476.427 423.537 476.421 423.623C476.032 425.598 477.285 427.675 476.723 429.607C476.233 431.236 474.634 432.231 473.626 433.601C472.952 434.574 472.579 435.725 472.553 436.909C472.528 438.094 472.851 439.26 473.482 440.262C474.562 441.934 476.521 443.059 477.083 444.976C477.818 447.514 475.83 449.936 474.058 451.883C470.801 455.469 467.789 459.269 465.04 463.259C464.274 464.244 463.778 465.412 463.599 466.647C463.441 469.156 465.846 471.376 465.429 473.856C465.097 475.817 463.181 477.028 461.525 478.181C455.402 482.233 450.489 488.721 450 496.045C448.433 484.368 443.598 473.371 436.054 464.326C433.994 461.831 431.732 459.351 430.882 456.194C430.565 454.939 430.508 453.613 430.076 452.402C428.635 448.567 424.054 446.937 422.051 443.405C420.611 440.939 420.611 437.739 418.824 435.576C417.038 433.413 414.229 432.894 412.687 430.789C411.915 429.364 411.26 427.879 410.728 426.348C410.081 425.105 409.172 424.018 408.063 423.162C407.851 422.987 407.629 422.823 407.4 422.672C407.639 422.457 407.831 422.195 407.963 421.902C408.094 421.609 408.163 421.292 408.164 420.97C408.164 419.283 406.493 418.173 405.037 417.351C403.165 416.275 401.335 415.136 399.549 413.934C401.498 413.02 403.187 411.632 404.461 409.897C406.079 407.295 406.741 404.211 406.334 401.174C406.236 398.742 405.328 396.413 403.755 394.556C402.848 393.605 401.71 392.898 400.759 391.99C398.295 389.596 397.46 386.021 396.437 382.733C395.083 378.408 392.965 373.881 389.018 371.574C387.116 370.478 384.898 369.959 383.039 368.791C381.181 367.623 379.625 365.403 380.273 363.283C380.705 361.842 382.045 360.861 382.953 359.636C384.036 358.051 384.452 356.102 384.109 354.213C383.767 352.324 382.694 350.646 381.123 349.543C380.057 348.865 378.746 348.274 378.53 347.02C377.694 346.806 376.937 346.359 376.345 345.731C375.753 345.103 375.352 344.32 375.188 343.473C374.864 341.777 374.864 340.036 375.188 338.34C375.562 335.673 375.937 332.991 376.297 330.324C376.931 330.591 377.612 330.728 378.299 330.728C378.987 330.728 379.668 330.591 380.302 330.324C381.556 332.343 383.003 334.236 384.624 335.975C389.011 341.155 392.427 347.085 394.708 353.479C395.529 355.8 396.365 358.381 398.497 359.592C399.232 360.01 400.067 360.227 400.788 360.674C401.676 361.293 402.439 362.076 403.035 362.981L408.207 369.844L408.293 370.204C408.343 370.402 408.42 370.591 408.524 370.766C408.843 371.126 409.285 371.352 409.763 371.401C415.064 372.626 421.014 373.751 425.61 370.867C429.759 368.258 431.574 363.139 435.089 359.693C437.581 357.257 441.111 355.368 441.817 351.951C440.975 351.686 440.148 351.378 439.339 351.028C440.059 350.307 440.78 349.485 441.759 348.519C443.182 347.13 444.466 345.604 445.591 343.963C446.802 341.931 447.769 339.763 448.472 337.504C451.248 329.574 454.033 321.649 456.828 313.728C458.153 309.965 459.479 306.202 461.15 302.554C462.879 298.604 464.924 294.797 466.812 290.919C471.668 280.878 475.421 270.339 478.005 259.487C478.46 257.995 478.612 256.426 478.452 254.873C478.049 252.379 476.161 250.433 474.36 248.645C472.55 246.683 470.486 244.971 468.223 243.555C467.087 242.848 465.822 242.374 464.501 242.162C463.181 241.949 461.831 242.001 460.53 242.315C456.842 243.411 454.523 247.189 453.673 250.966C452.823 254.744 453.14 258.665 452.78 262.501C452.261 268.052 450.36 273.401 449.899 278.966C449.654 282.196 449.899 285.454 449.51 288.655C448.803 292.868 447.339 296.918 445.188 300.608C440.516 309.394 434.19 317.193 426.56 323.576C425.682 324.326 424.774 325.018 423.91 325.825C423.91 325.191 424.011 324.571 424.097 323.951C423.47 324.109 422.858 324.322 422.267 324.585C422.341 323.862 422.267 323.131 422.051 322.437C420.899 318.991 415.77 318.111 414.848 314.593C414.694 313.727 414.612 312.849 414.603 311.969C414.301 308.898 412.212 306.303 411.492 303.318C410.771 300.334 411.333 297.551 410.051 294.985C408.955 293.392 407.668 291.939 406.219 290.659C404.488 288.68 403.24 286.326 402.574 283.782C402.387 283.075 402.214 282.34 402.012 281.634C402.232 280.038 402.054 278.414 401.494 276.904C400.183 273.631 396.797 271.541 395.573 268.254C394.622 265.702 395.04 262.486 393.239 260.497C392.285 259.546 391.112 258.843 389.824 258.449C383.233 255.881 376.312 254.259 369.267 253.634C365.319 253.273 360.969 253.057 358.145 250.289C354.846 247.059 354.688 241.248 350.827 238.754C347.427 236.548 342.615 238.192 339.979 241.277C339.583 241.733 339.217 242.215 338.884 242.719C338.403 240.791 338.3 238.789 338.581 236.822C338.581 236.317 338.682 235.813 338.725 235.38C345.221 233.267 350.756 228.914 354.342 223.096V223.168L354.515 223.615C354.933 224.668 355.595 225.691 356.575 225.792C357.228 225.794 357.861 225.564 358.361 225.143C359.234 224.543 360.036 223.847 360.753 223.067C361.113 222.678 361.459 222.26 361.79 221.827C363.458 219.571 364.555 216.944 364.988 214.171C365.247 212.499 365.276 210.768 365.564 209.11C365.834 207.811 366.185 206.53 366.616 205.275C366.76 204.857 366.904 204.439 367.034 204.021C367.163 203.603 367.351 203.04 367.495 202.579C368.397 199.614 368.882 196.537 368.935 193.438C368.935 192.919 368.935 192.4 368.935 191.881C368.881 189.858 368.425 187.867 367.594 186.023C366.763 184.179 365.574 182.518 364.095 181.139C361.617 179.121 358.332 178.256 356.517 175.516C355.336 173.656 355.077 171.277 354.385 169.129C353.64 166.538 352.184 164.208 350.183 162.404C348.181 160.599 345.714 159.393 343.062 158.921C339.868 158.569 336.66 159.456 334.101 161.401L333.899 161.545C332.471 162.637 331.259 163.986 330.327 165.524C328.423 165 326.68 164.009 325.256 162.641C323.815 161.3 322.706 159.613 321.251 158.315C319.891 157.069 318.222 156.211 316.417 155.83C314.613 155.45 312.74 155.561 310.993 156.153C309.194 156.874 307.592 158.012 306.317 159.473C305.042 160.934 304.132 162.677 303.661 164.558C302.868 167.543 303.012 170.946 301.356 173.44C300.073 175.358 297.97 176.324 296.501 178.083C295.585 179.194 294.961 180.518 294.685 181.932V181.932C294.51 182.718 294.428 183.521 294.441 184.326V184.326C294.441 184.672 294.441 185.032 294.527 185.393C294.527 185.393 294.527 185.508 294.527 185.551C294.579 185.951 294.661 186.346 294.772 186.733V186.733C295.181 188.195 295.915 189.545 296.918 190.684C297.874 191.766 299.061 192.618 300.39 193.178C300.936 193.391 301.494 193.569 302.061 193.712L303.776 194.101L304.381 194.245C302.316 198.137 301.17 202.45 301.03 206.854C300.89 211.258 301.76 215.635 303.574 219.65C303.574 220.039 303.473 220.443 303.43 220.847C303.196 226.529 303.446 232.221 304.179 237.86C304.381 240.08 304.496 242.56 303.128 244.319C302.505 245.022 301.804 245.65 301.039 246.194C301.817 245.185 302.609 244.175 303.416 243.18C301.384 241.133 298.172 240.873 295.291 241.09C289.712 241.493 284.295 243.149 279.444 245.934C276.217 247.78 272.903 250.26 269.215 249.813C267.04 249.582 264.893 248.371 262.776 248.948C261.585 249.435 260.474 250.096 259.477 250.909C258.687 251.473 257.738 251.771 256.768 251.759C254.506 248.962 251.006 247.073 248.297 244.81C245.211 242.067 242.39 239.04 239.87 235.769C235.202 230.146 230.549 224.495 225.968 218.799C222.107 214.013 218.145 208.822 217.468 202.694C217.398 202.091 217.365 201.485 217.367 200.878C217.462 197.966 217.828 195.07 218.462 192.227C218.634 191.545 218.634 190.832 218.462 190.151C218.03 188.709 216.373 188.161 214.947 187.844C215.132 186.741 215.262 185.629 215.336 184.513C216.142 172.113 215.264 159.512 217.886 147.372C218.88 142.715 220.508 137.971 223.864 134.583C229.123 129.277 237.925 127.994 241.959 121.607C245.33 116.359 243.99 108.933 239.754 104.305C235.519 99.6768 228.993 97.788 222.784 98.0187C221.041 97.971 219.322 98.4373 217.842 99.3596C216.461 100.583 215.427 102.149 214.846 103.901L208.608 118.853C206.816 122.768 205.305 126.806 204.084 130.935C202.356 137.265 201.967 143.912 200.598 150.284C200.598 155.187 197.443 161.3 195.714 165.813C193.784 170.902 191.695 175.905 189.952 181.082C189.52 182.394 188.007 186.243 187.071 189.732C186.717 189.933 186.388 190.175 186.091 190.453C185.339 191.418 184.655 192.435 184.045 193.496C182.734 195.24 180.602 196.163 179.162 197.821C177.721 199.479 177.418 202.565 179.421 203.401C179.827 203.538 180.248 203.629 180.674 203.675C180.937 203.697 181.197 203.74 181.452 203.805C183.613 204.41 184.463 207.15 184.146 209.384C183.829 211.619 182.706 213.71 182.518 215.959C182.129 219.953 184.463 223.644 186.71 226.989C189.037 230.62 191.607 234.088 194.403 237.37C196.435 239.634 198.725 241.695 200.771 243.887C208.565 251.889 214.759 261.275 221.761 269.969C224.279 273.261 227.143 276.272 230.304 278.952C232.371 280.558 234.531 282.041 236.772 283.393C240.777 285.959 244.797 288.497 248.816 291.049C250.182 292.046 251.728 292.77 253.368 293.182C253.903 293.262 254.447 293.262 254.982 293.182C255.054 293.528 255.111 293.889 255.198 294.235C256.134 298.013 258.194 301.444 258.425 305.294C258.655 309.143 258.31 313.094 258.583 316.972C258.843 320.577 259.635 324.181 259.837 327.728C260.24 334.519 258.569 341.252 256.955 347.914C254.521 357.646 253.051 367.609 248.312 376.433C246.986 378.869 245.43 381.364 245.43 384.132C245.43 384.478 245.43 384.81 245.517 385.141L243.356 386.352C242.722 386.727 242.088 387.088 241.512 387.463C238.775 389.236 235.85 391.211 234.727 394.297C233.819 396.791 234.237 399.66 233.142 402.068C233.093 402.178 233.035 402.284 232.969 402.385C231.816 404.635 229.526 406.307 229.007 408.773C228.618 410.676 229.367 412.665 229.007 414.54C229.007 414.54 229.007 414.54 229.007 414.612C228.681 415.554 228.421 416.517 228.229 417.495C228.214 417.815 228.243 418.135 228.316 418.447C228.587 419.541 229.191 420.523 230.045 421.259C230.563 421.757 231.128 422.206 231.73 422.6C232.35 423.003 232.983 423.378 233.632 423.739L234.006 423.94C234.554 424.229 235.101 424.488 235.663 424.748L236.038 424.921C236.686 425.195 237.348 425.454 238.011 425.685L238.472 425.829C238.991 426.002 239.524 426.161 240.057 426.305L240.417 426.406L240.748 426.478L242.189 426.781L242.722 426.882C243.356 426.997 244.004 427.084 244.667 427.141C244.854 427.141 245.056 427.141 245.243 427.141C245.733 427.141 246.208 427.213 246.684 427.228H247.361C247.865 427.228 248.355 427.228 248.802 427.228H249.32C249.997 427.228 250.674 427.127 251.351 427.04H251.568C252.173 426.954 252.778 426.853 253.383 426.723L253.844 426.622C254.406 426.507 254.967 426.363 255.529 426.204L255.832 426.118C256.509 425.916 257.186 425.685 257.849 425.44C260.139 424.491 262.363 423.388 264.504 422.138C265.945 421.331 267.386 420.523 268.826 419.788C269.895 419.249 270.991 418.768 272.111 418.346C274.834 417.175 277.799 416.68 280.755 416.904C282.213 417.108 283.657 417.407 285.077 417.798C285.085 417.952 285.085 418.106 285.077 418.26C286.248 425.2 287.405 432.125 288.548 439.036C290.431 437.672 292.426 436.471 294.513 435.446C294.123 436.486 293.867 437.571 293.749 438.676C293.662 439.539 293.662 440.408 293.749 441.271C293.879 442.626 294.167 444.155 293.346 445.222C292.841 445.899 291.905 446.274 291.631 447.024C291.431 447.786 291.382 448.579 291.487 449.36C291.429 450.257 291.051 451.104 290.422 451.747C289.793 452.39 288.954 452.786 288.059 452.863C288.468 454.024 288.477 455.289 288.082 456.455C287.688 457.621 286.913 458.621 285.883 459.294C285.284 459.584 284.723 459.947 284.212 460.375C283.719 461.012 283.388 461.759 283.247 462.552C281.347 469.694 277.43 476.136 271.967 481.108C269.922 482.723 268.053 484.55 266.392 486.558C265.373 488.12 264.527 489.788 263.87 491.533C260.029 500.943 256.129 510.353 252.173 519.763C249.983 525.026 247.851 530.375 247.159 536.041C245.43 551.57 231.6 564.748 234.194 580.175C234.72 584.033 236.272 587.678 238.688 590.729C241.57 594.19 245.891 596.194 250.213 597.809C261.321 602.134 273.033 604.484 284.702 606.863L303.027 610.626C306.622 611.454 310.271 612.032 313.947 612.356C318.369 612.659 322.907 612.241 327.215 613.366C329.88 614.072 332.43 615.355 335.181 615.5C337.544 615.629 340.454 615.125 341.852 617.042C343.249 618.96 342.169 621.541 343.494 623.242C345.626 625.982 350.827 623.242 353.146 625.823C353.78 626.803 354.265 627.872 354.587 628.995C354.939 629.692 355.429 630.31 356.027 630.812C356.168 631.63 356.226 632.461 356.2 633.292C355.898 636.635 355.202 639.931 354.126 643.11C352.397 648.964 350.673 654.823 348.954 660.686C348.299 662.757 347.817 664.879 347.513 667.03C347.405 668.075 347.405 669.128 347.513 670.173C347.816 673.359 349.645 676.647 352.685 677.685C355.043 678.309 357.551 677.999 359.687 676.82C361.751 675.748 363.684 674.442 365.449 672.927C368.639 670.512 371.442 667.624 373.762 664.363C380.965 653.578 378.631 639.001 383.687 627.077C387.044 619.104 393.585 612.659 395.76 604.253C396.269 602.657 396.329 600.951 395.933 599.322C395.025 596.439 391.957 594.795 389.09 593.757H388.96C386.607 592.916 384.201 592.232 381.757 591.71C381.152 591.58 380.532 591.465 379.913 591.378C378.546 590.252 377.457 588.826 376.729 587.211C376.616 586.358 376.388 585.524 376.052 584.731C375.824 584.386 375.516 584.1 375.156 583.897C374.795 583.694 374.391 583.579 373.978 583.563C372.537 583.419 370.607 583.953 369.036 583.837C365.824 583.592 363.692 580.435 360.81 578.993C357.929 577.551 354.803 577.897 351.734 578.113C350.637 578.264 349.521 578.195 348.45 577.912C347.173 577.311 346.004 576.502 344.992 575.518C343.218 574.14 341.148 573.193 338.945 572.753C336.742 572.312 334.468 572.39 332.3 572.981C330.921 573.533 329.462 573.859 327.978 573.947C325.169 573.802 323.181 571.279 321.107 569.376C315.431 564.171 307.349 562.801 300.462 559.384C299.408 558.992 298.529 558.235 297.984 557.25C297.192 555.304 298.979 553.329 300.592 551.988L312.434 542.155C325.4 531.37 341.607 523.238 347.629 507.436C348.251 505.313 349.225 503.31 350.51 501.51C350.976 500.96 351.514 500.475 352.109 500.068C354.724 498.359 357.901 497.733 360.969 498.323C364.702 499.168 368.241 500.714 371.399 502.88C376.556 506.023 381.57 509.353 386.453 512.972C391.292 516.416 395.889 520.188 400.211 524.262C407.775 531.471 414.07 540.006 421.115 547.778C428.16 555.549 436.213 562.801 445.995 566.521C455.776 570.241 467.604 570.068 476.003 563.825C485.698 556.616 488.81 543.741 491.259 531.918C496.661 526.684 498.289 518.754 500.926 511.732C502.582 507.292 504.7 503.081 506.487 498.641C508.619 493.421 510.29 488.043 511.961 482.665C513.855 477.265 515.14 471.67 515.793 465.984C516.484 456.987 514.079 447.442 516.6 438.993C519.928 438.258 522.953 436.383 526.223 435.302C531.092 433.687 536.307 433.947 541.465 433.99H541.796C543.575 434.174 545.363 433.747 546.867 432.779C548.596 431.337 548.87 428.886 548.956 426.637C549.158 421.187 548.812 414.987 544.678 411.425ZM335.945 165.467C334.754 165.762 333.521 165.849 332.3 165.726L335.945 165.467Z" fill="url(#paint0_linear)"/>
<path d="M341.181 256.768C339.443 258.245 337.405 259.328 335.209 259.942L325.032 263.59C319.505 265.572 313.734 267.569 307.906 266.85C304.648 266.448 290.68 264.395 288.57 261.852C285.354 257.917 296.623 252.129 300.47 248.812C301.342 248.185 302.15 247.473 302.882 246.686C304.317 244.934 304.131 242.478 303.93 240.266C303.2 234.663 302.95 229.008 303.183 223.362C303.295 222.016 303.487 220.678 303.757 219.355C305.193 212.749 311.337 215.162 316.189 216.914C322.029 218.812 327.677 221.26 333.056 224.224C334.694 225.069 336.118 226.278 337.219 227.757C339.343 230.974 338.496 235.197 338.152 239.247C337.85 242.392 337.865 245.408 339.831 247.692C340.821 248.565 341.729 249.526 342.545 250.564C343.004 251.609 343.119 252.774 342.874 253.889C342.629 255.004 342.036 256.012 341.181 256.768Z" fill="#BE6F72"/>
<path d="M200.073 152.517C201.499 146.063 201.812 139.436 203.523 133.055C204.754 128.9 206.274 124.839 208.071 120.904L214.287 105.934C214.862 104.172 215.886 102.598 217.252 101.37C218.717 100.44 220.417 99.9703 222.142 100.018C228.287 99.7859 234.745 101.748 238.936 106.341C243.128 110.934 244.453 118.419 241.117 123.695C237.126 130.032 228.415 131.326 223.211 136.674C219.89 140.075 218.279 144.828 217.295 149.523C214.7 161.732 215.57 174.406 214.772 186.876C214.515 190.742 213.774 195.175 210.495 197.196C208.511 198.179 206.308 198.615 204.108 198.46L194.755 198.605C193.187 198.605 187.499 199.608 186.458 198.416C184.633 196.294 188.796 185.815 189.552 183.475C191.234 178.272 193.301 173.228 195.254 168.112C196.951 163.592 200.073 157.444 200.073 152.517Z" fill="#BE6F72"/>
<path d="M395.63 605.09C393.441 613.462 386.86 619.98 383.482 627.961C378.394 639.91 380.684 654.524 373.494 665.329C371.16 668.601 368.339 671.497 365.13 673.918C363.35 675.431 361.404 676.738 359.331 677.814C357.182 678.999 354.659 679.31 352.286 678.683C349.227 677.641 347.386 674.338 347.082 671.152C346.973 670.107 346.973 669.054 347.082 668.009C347.386 665.853 347.871 663.726 348.531 661.65C350.271 655.779 352.006 649.909 353.735 644.038C354.818 640.849 355.519 637.543 355.823 634.189C356.011 630.539 353.692 625.788 354.678 622.384C355.127 620.849 356.809 619.487 357.577 618.198C358.668 616.343 359.506 614.351 360.07 612.274C361.259 608.233 362.071 603.917 364.564 600.513C366.191 598.495 368.094 596.715 370.218 595.227C371.785 593.854 373.622 592.823 375.611 592.2C377.54 591.86 379.521 591.954 381.409 592.475C383.868 593 386.29 593.687 388.658 594.531H388.788C391.687 595.574 394.761 597.182 395.674 600.108C396.123 601.74 396.108 603.466 395.63 605.09V605.09Z" fill="#3F3D56"/>
<path d="M548.951 427.403C548.865 429.63 548.591 432.116 546.862 433.51C545.357 434.471 543.568 434.892 541.791 434.703H541.402C536.258 434.703 531.028 434.416 526.158 436.011C522.456 437.232 519.055 439.474 515.194 439.919C509.878 440.523 504.878 437.62 500.167 435.091C495.731 432.707 491.177 430.549 486.523 428.624C483.468 427.374 477.23 426.569 475.76 423.235C475.257 421.658 474.834 420.056 474.492 418.436C474.251 417.711 473.957 417.005 473.614 416.323C472.749 414.867 472.2 413.247 472 411.567C472.006 409.892 472.585 408.269 473.642 406.968C474.818 405.58 476.257 404.438 477.876 403.607C479.496 402.776 481.264 402.272 483.079 402.125C486.71 401.844 490.362 402.037 493.943 402.7L529.414 407.787C532.152 408.175 534.904 408.563 537.598 409.224C540.157 409.667 542.569 410.722 544.629 412.3C548.822 415.806 549.167 421.971 548.951 427.403Z" fill="#3F3D56"/>
<path d="M518.135 437.217C513.812 446.321 516.925 457.094 516.146 467.161C515.49 472.805 514.204 478.357 512.313 483.716C510.641 489.066 508.969 494.431 506.836 499.623C505.049 503.937 502.931 508.252 501.274 512.653C498.636 519.672 496.95 527.568 491.603 532.789C489.153 544.554 486.04 557.412 476.341 564.545C467.911 570.758 456.165 570.974 446.322 567.22C436.479 563.467 428.48 556.275 421.433 548.523C414.386 540.771 408.088 532.357 400.536 525.137C396.2 521.076 391.592 517.313 386.744 513.876C381.854 510.338 376.843 506.996 371.713 503.851C368.554 501.694 365.013 500.157 361.279 499.321C358.212 498.734 355.036 499.352 352.415 501.047C351.82 501.452 351.282 501.936 350.816 502.485C349.533 504.277 348.559 506.27 347.933 508.382C341.909 524.116 325.725 532.199 312.726 542.9L300.807 552.752C299.193 554.089 297.406 556.045 298.199 557.987C298.744 558.969 299.623 559.724 300.678 560.115C307.566 563.51 315.651 564.876 321.329 570.054C323.405 571.952 325.394 574.455 328.204 574.599C329.688 574.512 331.148 574.186 332.527 573.635C334.696 573.049 336.971 572.973 339.174 573.413C341.376 573.852 343.447 574.794 345.224 576.166C346.216 577.182 347.377 578.019 348.654 578.64C349.725 578.923 350.842 578.991 351.94 578.841C355.01 578.626 358.267 578.352 361.019 579.719C363.772 581.085 366.034 584.307 369.248 584.537C370.819 584.652 372.693 584.134 374.191 584.278C374.604 584.291 375.008 584.402 375.369 584.602C375.73 584.803 376.038 585.086 376.267 585.429C376.603 586.219 376.831 587.051 376.944 587.902C377.535 589.93 379.524 591.167 380.821 592.836C382.81 595.396 383.098 598.876 382.896 602.112C382.226 612.206 377.708 621.66 370.272 628.533C368.156 630.692 365.457 632.19 362.504 632.848C361.025 633.156 359.486 632.993 358.105 632.382C356.724 631.77 355.571 630.741 354.808 629.439C354.486 628.319 354.001 627.253 353.367 626.275C351.046 623.729 345.844 626.433 343.711 623.715C342.385 622.018 343.336 619.299 342.068 617.545C340.8 615.79 337.744 616.106 335.395 616.006C332.643 615.862 330.092 614.568 327.426 613.892C323.102 612.77 318.577 613.187 314.153 612.885C310.476 612.561 306.826 611.985 303.228 611.159L284.854 607.405C273.18 605.032 261.463 602.63 250.352 598.387C246.101 596.776 241.82 594.792 238.823 591.34C236.406 588.307 234.853 584.68 234.326 580.841C231.718 565.494 245.553 552.378 247.297 536.916C247.916 531.279 250.179 525.957 252.312 520.722C256.222 511.364 260.123 502.001 264.014 492.633C264.669 490.895 265.514 489.236 266.536 487.685C268.195 485.683 270.065 483.865 272.114 482.263C277.575 477.317 281.493 470.906 283.398 463.796C283.539 463.005 283.871 462.26 284.364 461.624C284.874 461.197 285.436 460.835 286.035 460.546C287.065 459.877 287.839 458.882 288.234 457.721C288.628 456.561 288.621 455.301 288.212 454.145C289.106 454.071 289.945 453.679 290.574 453.041C291.204 452.402 291.582 451.559 291.642 450.665C291.537 449.886 291.585 449.095 291.786 448.335C292.131 447.587 292.996 447.213 293.501 446.551C294.322 445.473 294.034 443.963 293.904 442.611C293.818 441.755 293.818 440.892 293.904 440.036C294.22 436.991 295.585 434.149 297.766 431.996C301.211 428.616 306.111 429.494 310.867 428.688C315.611 427.666 320.244 426.188 324.702 424.273C337.207 419.356 350.373 416.317 363.772 415.255C377.214 414.214 390.712 416.368 403.159 421.54C404.973 422.273 406.683 423.241 408.246 424.417C409.356 425.27 410.266 426.355 410.912 427.595C411.444 429.118 412.1 430.595 412.872 432.011C414.414 434.11 417.326 434.786 419.012 436.771C420.698 438.756 420.842 442.107 422.24 444.567C424.243 448.076 428.884 449.701 430.267 453.512C430.7 454.721 430.757 456.044 431.074 457.295C431.853 460.43 434.187 462.904 436.248 465.378C443.803 474.396 448.641 485.368 450.199 497.019C450.66 489.728 455.574 483.27 461.728 479.243C463.385 478.164 465.302 476.97 465.633 475.014C466.051 472.541 463.645 470.34 463.803 467.823C463.978 466.594 464.475 465.433 465.244 464.458C467.991 460.485 471.005 456.703 474.266 453.139C476.039 451.197 478.028 448.824 477.293 446.264C476.731 444.351 474.771 443.229 473.69 441.561C473.059 440.566 472.736 439.408 472.762 438.231C472.787 437.054 473.16 435.911 473.834 434.945C474.843 433.578 476.442 432.586 476.932 430.961C477.494 429.048 476.24 426.977 476.63 425.006C477.156 423.429 478.203 422.075 479.598 421.166C481.511 419.429 483.684 418.002 486.04 416.938C489.845 415.5 494.082 416.032 498.117 416.593C504.862 417.527 512.428 418.966 516.233 424.604C518.712 428.099 519.951 433.449 518.135 437.217Z" fill="#65617D"/>
<path opacity="0.1" d="M548.951 428.375C548.865 430.687 548.591 433.269 546.863 434.716C545.359 435.713 543.571 436.15 541.795 435.954H541.406C541.996 432.851 545.64 431.075 546.273 427.927C546.381 426.96 546.297 425.98 546.024 425.049C545.752 424.117 545.297 423.253 544.689 422.511C541.608 418.199 536.654 415.812 531.73 414.066C517.817 409.124 502.912 407.968 488.444 410.709C484.51 411.373 480.683 412.593 477.069 414.335C475.871 415.111 474.717 415.958 473.613 416.871C472.749 415.359 472.2 413.677 472 411.933C472.006 410.194 472.585 408.509 473.642 407.158C474.816 405.717 476.254 404.531 477.873 403.668C479.492 402.805 481.259 402.283 483.073 402.13C486.702 401.838 490.352 402.039 493.931 402.727L529.382 408.009C532.118 408.411 534.869 408.814 537.561 409.501C540.118 409.96 542.53 411.056 544.588 412.694C548.822 416.334 549.167 422.735 548.951 428.375Z" fill="black"/>
<path opacity="0.1" d="M395.533 605.462C393.349 613.792 386.78 620.277 383.409 628.217C378.331 640.107 380.617 654.647 373.441 665.398C371.111 668.653 368.296 671.535 365.093 673.944C363.317 675.449 361.376 676.749 359.306 677.82C357.162 678.999 354.643 679.309 352.275 678.685C349.223 677.647 347.385 674.362 347.081 671.191C346.973 670.152 346.973 669.104 347.081 668.064L347.168 668.295C348.427 671.321 350.481 674.491 353.722 675.025C354.938 675.112 356.16 674.948 357.31 674.544C358.46 674.14 359.514 673.504 360.406 672.676C365.18 668.857 367.958 663.164 370.606 657.674C372.678 653.714 374.317 649.545 375.496 645.237C376.074 642.787 376.349 640.28 376.942 637.83C379.691 625.926 389.052 616.213 391.121 604.151C391.289 603.321 391.328 602.471 391.236 601.629C390.963 600.531 390.545 599.475 389.992 598.487C389.489 597.372 389.12 596.201 388.893 595C391.786 596.038 394.853 597.637 395.765 600.548C396.144 602.176 396.064 603.877 395.533 605.462V605.462Z" fill="black"/>
<path opacity="0.1" d="M374 584.575C372.678 588.076 370.454 591.154 367.56 593.489C363.494 596.627 358.735 598.713 353.693 599.566C351.347 600.173 348.885 600.143 346.553 599.479C343.383 598.365 341.098 595.355 337.856 594.487C335.543 593.851 333.058 594.415 330.716 594.068C326.504 593.474 323.233 590.219 319.835 587.614C309.424 579.685 295.758 577.123 285.348 569.194C284.884 568.906 284.501 568.502 284.234 568.022C284.034 567.502 283.961 566.941 284.02 566.387C284.058 561.577 285.125 556.833 287.147 552.481C288.803 549.445 290.775 546.598 293.03 543.988C302.356 532.412 311.723 520.749 322.891 510.982C327.575 506.887 332.687 503.067 338.599 501.215C341.884 500.187 348.367 499.218 352.365 500.954C351.775 501.362 351.242 501.849 350.78 502.401C349.509 504.204 348.544 506.209 347.924 508.334C341.955 524.164 325.918 532.296 313.037 543.061L301.256 552.93C299.657 554.276 297.886 556.244 298.671 558.197C299.211 559.185 300.083 559.945 301.128 560.338C307.954 563.753 315.965 565.128 321.591 570.337C323.648 572.247 325.618 574.765 328.403 574.91C329.873 574.822 331.32 574.495 332.687 573.94C334.836 573.351 337.09 573.274 339.273 573.716C341.455 574.158 343.508 575.106 345.268 576.487C346.251 577.508 347.401 578.35 348.667 578.976C349.728 579.26 350.835 579.329 351.923 579.178C354.964 578.961 358.192 578.686 360.919 580.061C363.647 581.435 365.889 584.677 369.073 584.908C370.658 584.952 372.515 584.431 374 584.575Z" fill="black"/>
<path d="M241.984 389.456C239.316 391.218 236.479 393.18 235.383 396.23C234.485 398.694 234.906 401.544 233.825 403.935C232.743 406.327 230.314 408.017 229.78 410.595C229.401 412.471 230.145 414.448 229.78 416.324C229.46 417.294 229.202 418.284 229.008 419.288C228.867 421.437 230.665 423.169 232.42 424.344C236.163 426.811 240.422 428.349 244.853 428.834C249.285 429.319 253.766 428.738 257.937 427.137C261.687 425.704 265.071 423.384 268.666 421.537C272.175 419.485 276.183 418.491 280.224 418.672C282.541 418.93 284.76 419.804 287.077 420.105C288.221 420.342 289.403 420.29 290.522 419.953C291.641 419.616 292.662 419.004 293.495 418.171C294.208 417.157 294.688 415.992 294.9 414.763C296.852 406.9 295.967 398.565 294.113 390.674C292.259 382.782 289.451 375.149 287.471 367.286C286.066 361.472 284.985 355.485 282.64 349.971C280.294 344.458 276.348 339.33 270.829 337.225C270.394 337.004 269.898 336.944 269.425 337.053C269.068 337.199 268.753 337.436 268.512 337.741C264.144 342.452 260.854 348.091 258.878 354.254C256.673 361.114 256.069 368.389 254.047 375.292C253.176 378.156 252.053 381.995 249.834 384.172C247.615 386.348 244.498 387.824 241.984 389.456Z" fill="#3F3D56"/>
<path opacity="0.1" d="M295.864 414.773C295.625 416.003 295.114 417.164 294.368 418.168C293.523 419.002 292.488 419.615 291.353 419.952C290.217 420.289 289.017 420.341 287.858 420.102C285.521 419.815 283.27 418.942 280.92 418.669C276.82 418.479 272.751 419.473 269.195 421.534C265.549 423.368 262.073 425.646 258.297 427.121C252.775 429.227 246.742 429.572 241.017 428.109C237.977 427.341 235.087 426.063 232.47 424.328C230.675 423.153 228.865 421.463 229.008 419.271C229.207 418.267 229.469 417.277 229.791 416.306C230.162 414.429 229.421 412.452 229.791 410.576C230.333 407.997 232.812 406.278 233.894 403.9C234.977 401.522 234.564 398.672 235.461 396.194C236.572 393.142 239.464 391.18 242.171 389.418C244.878 387.656 248.097 386.309 250.263 384.175C250.569 383.869 250.85 383.538 251.103 383.187C252.665 380.765 253.811 378.097 254.494 375.294C256.588 368.389 257.158 361.126 259.38 354.25C261.396 348.088 264.737 342.449 269.167 337.734C269.404 337.426 269.719 337.189 270.079 337.046C270.56 336.948 271.059 337.008 271.503 337.218C277.088 339.338 281.091 344.466 283.484 349.981C285.877 355.497 286.889 361.441 288.385 367.286C290.379 375.15 293.243 382.785 295.123 390.678C297.003 398.572 297.844 406.894 295.864 414.773Z" fill="black"/>
<path opacity="0.1" d="M338.533 238.678C331.674 240.781 324.252 240.364 317.693 237.506C311.134 234.648 305.901 229.551 303 223.195C303.114 221.876 303.309 220.565 303.583 219.268C305.042 212.794 311.285 215.158 316.215 216.876C322.15 218.736 327.889 221.135 333.355 224.04C335.02 224.868 336.467 226.052 337.585 227.502C339.744 230.613 338.883 234.751 338.533 238.678Z" fill="black"/>
<path d="M329.5 239C345.24 239 358 226.016 358 210C358 193.984 345.24 181 329.5 181C313.76 181 301 193.984 301 210C301 226.016 313.76 239 329.5 239Z" fill="#BE6F72"/>
<path opacity="0.1" d="M407.999 425.121C407.999 427.505 404.769 428.266 402.372 428.137C393.759 427.635 385.332 425.265 376.804 425.983C366.023 426.96 356.118 432.92 345.308 433.465C341.145 433.681 336.91 433.063 332.804 433.824C327.492 434.815 322.755 438.047 317.343 438.506C312.648 438.908 308.011 437.142 303.317 437.329C300.054 437.533 296.875 438.444 294 440C294.314 436.959 295.674 434.121 297.847 431.972C301.278 428.597 306.159 429.473 310.897 428.669C315.622 427.648 320.238 426.172 324.678 424.26C337.135 419.349 350.25 416.315 363.597 415.255C376.987 414.215 390.433 416.366 402.831 421.531C404.638 422.263 406.342 423.229 407.899 424.403C407.971 424.636 408.005 424.878 407.999 425.121V425.121Z" fill="black"/>
<path d="M316.728 261.802L305.089 257.474L300.175 255.671C298.173 254.824 296.065 254.256 293.91 253.983C288.277 253.55 282.975 257.315 279.972 262.119C276.969 266.923 275.834 272.65 274.871 278.247C273.549 285.883 272.428 293.547 271.509 301.241C270.519 308.184 270.015 315.188 270 322.201C270.33 340.074 274.095 357.688 278.234 375.071C280.26 382.773 281.791 390.598 282.817 398.498C283.162 401.758 283.32 405.047 283.665 408.307C284.039 411.986 284.642 415.635 285.246 419.271L288.708 440C293.019 436.927 297.919 434.23 303.221 434.071C307.92 433.898 312.575 435.658 317.26 435.268C322.648 434.807 327.419 431.561 332.735 430.566C336.845 429.801 341.083 430.407 345.265 430.205C356.07 429.657 365.999 423.67 376.776 422.689C385.326 421.925 393.818 424.348 402.382 424.839C404.767 424.983 408 424.219 408 421.809C408 420.136 406.333 419.025 404.882 418.203C398.047 414.058 391.538 409.395 385.412 404.254C379.75 399.753 374.003 395.137 370.109 389.049C360.726 374.407 363.945 354.587 355.941 339.151C349.432 326.587 355.941 310.142 355.941 296.005C355.941 288.95 355.941 281.81 354.289 274.943C353.256 271.111 351.969 267.352 350.438 263.691L344.848 249.482C344.732 249.067 344.503 248.692 344.187 248.4C343.81 248.146 343.363 248.014 342.908 248.025C339.553 247.819 336.243 248.879 333.626 250.997C330.996 253.146 329.315 256.233 326.729 258.484C323.898 260.994 320.248 263.1 316.728 261.802Z" fill="#E3E8F4"/>
<path d="M334.686 253.734C335.626 249.771 336.64 245.634 339.327 242.538C342.015 239.442 346.92 237.808 350.387 240.021C354.323 242.538 354.484 248.353 357.847 251.594C360.785 254.371 365.191 254.573 369.186 254.935C376.368 255.579 383.424 257.215 390.144 259.796C391.454 260.196 392.648 260.9 393.624 261.85C395.46 263.904 395.093 267.057 396.004 269.618C397.252 272.916 400.703 275.014 402.04 278.297C403.509 281.943 402.04 286.022 400.806 289.769C398.589 296.51 397.193 303.497 395.034 310.252C392.875 317.008 389.806 323.662 384.754 328.74C382.521 331.011 379.202 333.079 376.265 331.749L375.134 339.763C374.804 341.459 374.804 343.202 375.134 344.898C375.301 345.748 375.71 346.534 376.313 347.164C376.917 347.794 377.689 348.242 378.541 348.457C378.761 349.701 380.098 350.294 381.185 350.974C381.987 351.514 382.672 352.206 383.201 353.009C383.73 353.812 384.092 354.711 384.265 355.653C384.439 356.595 384.42 357.561 384.212 358.496C384.003 359.431 383.608 360.316 383.05 361.1C382.125 362.329 380.759 363.299 380.318 364.76C379.657 366.886 381.229 369.099 383.138 370.271C385.047 371.443 387.294 371.949 389.233 373.063C393.257 375.363 395.416 379.847 396.797 384.231C397.825 387.529 398.677 391.087 401.203 393.489C402.172 394.415 403.332 395.109 404.258 396.064C405.861 397.921 406.787 400.253 406.887 402.689C407.289 405.713 406.614 408.78 404.977 411.368C402.04 415.52 396.562 416.735 391.759 418.601C383.96 421.755 377.542 427.397 370.669 432.199C367.87 434.42 364.571 435.948 361.049 436.655C356.291 437.291 351.606 435.208 346.818 435.035C343.953 435.049 341.102 435.413 338.329 436.119L329.517 438C329.987 431.273 326.227 424.547 324.127 418.138C320.161 406.074 319.427 393.156 320.367 380.527C321.307 367.899 323.921 355.415 326.506 342.989C328.312 334.309 328.136 325.239 330.912 316.805C333.511 308.69 337.227 300.893 338.593 292.459C340.825 278.804 331.543 267.231 334.686 253.734Z" fill="#3F3D56"/>
<path d="M401.272 281.065C402.08 282.543 402.649 284.138 402.956 285.792C403.633 288.354 404.902 290.724 406.661 292.715C408.131 294.009 409.439 295.474 410.556 297.078C411.904 299.609 411.391 302.692 412.021 305.47C412.753 308.481 414.876 311.099 415.184 314.197C415.193 315.085 415.276 315.97 415.433 316.844C416.384 320.378 421.597 321.207 422.754 324.727C423.53 327.025 422.198 329.498 422.447 331.898C422.629 332.64 422.673 333.408 422.579 334.166C422.251 335.026 421.669 335.766 420.909 336.29C416.068 340.898 412.714 346.831 411.274 353.336C409.862 359.798 409.121 366.387 409.063 373L403.337 365.481C402.727 364.572 401.952 363.783 401.053 363.153C400.321 362.717 399.471 362.499 398.724 362.077C396.557 360.855 395.708 358.252 394.873 355.925C392.551 349.485 389.078 343.514 384.623 338.297C382.295 335.592 379.586 332.843 379.073 329.309C378.919 327.69 379.008 326.058 379.337 324.465C380.801 314.924 382.368 305.179 387.039 296.715C389.221 292.759 392.047 289.181 394.141 285.166C395.547 282.49 397.524 275.567 401.272 281.065Z" fill="#3F3D56"/>
<path d="M259.599 290.874C259.626 292.094 259.313 293.298 258.697 294.353C258.149 295.008 257.428 295.497 256.616 295.766C255.804 296.035 254.933 296.073 254.1 295.875C252.444 295.461 250.883 294.732 249.504 293.73C245.45 291.179 241.397 288.623 237.343 286.062C235.08 284.703 232.899 283.212 230.812 281.597C227.621 278.913 224.729 275.895 222.186 272.596C215.117 263.898 208.862 254.462 200.992 246.431C198.854 244.257 196.628 242.17 194.563 239.894C191.74 236.604 189.144 233.127 186.795 229.486C184.526 226.138 182.169 222.427 182.562 218.427C182.795 216.165 183.886 214.078 184.206 211.831C184.526 209.584 183.668 206.845 181.486 206.236C181.228 206.171 180.965 206.128 180.7 206.105C180.27 206.06 179.845 205.968 179.435 205.83C177.413 204.989 177.718 201.873 179.173 200.235C180.627 198.597 182.78 197.684 184.104 195.886C184.72 194.82 185.41 193.798 186.17 192.828C187.144 191.996 188.307 191.413 189.559 191.132C197.949 188.668 206.825 188.334 215.378 190.161C216.833 190.48 218.491 191.059 218.928 192.465C219.102 193.15 219.102 193.868 218.928 194.553C218.286 197.411 217.916 200.323 217.822 203.25C217.82 203.86 217.854 204.47 217.924 205.076C218.608 211.222 222.608 216.426 226.506 221.224C231.132 226.935 235.83 232.603 240.543 238.256C243.092 241.532 245.941 244.565 249.053 247.316C251.962 249.722 255.729 251.664 257.999 254.752C259.846 257.245 259.25 260.651 259.453 263.652C260.13 272.712 260.179 281.808 259.599 290.874V290.874Z" fill="#3F3D56"/>
<path d="M442.053 349.751C443.481 348.359 444.771 346.835 445.905 345.199C447.125 343.181 448.097 341.026 448.802 338.779L457.2 315.156C458.533 311.422 459.865 307.674 461.545 304.055C463.282 300.121 465.339 296.358 467.236 292.495C472.112 282.542 475.885 272.093 478.488 261.332C478.947 259.851 479.1 258.293 478.936 256.751C478.531 254.281 476.634 252.343 474.824 250.576C473.004 248.622 470.929 246.917 468.655 245.507C466.343 244.098 463.563 243.654 460.922 244.272C457.215 245.363 454.884 249.112 454.029 252.888C453.175 256.665 453.493 260.528 453.131 264.377C452.61 269.891 450.699 275.205 450.235 280.734C449.989 283.936 450.235 287.182 449.844 290.37C449.131 294.552 447.659 298.571 445.5 302.232C440.823 310.975 434.484 318.738 426.834 325.094C424.735 326.63 422.846 328.431 421.215 330.45C419.856 332.471 418.934 334.75 418.507 337.142C417.544 340.791 417.962 344.663 419.68 348.028C422.041 352.006 426.573 353.772 430.903 354.662C436.695 355.854 438.042 353.815 442.053 349.751Z" fill="#BE6F72"/>
<path d="M329.812 168.371C331.063 166.042 332.975 164.13 335.31 162.872C337.645 161.614 340.3 161.066 342.946 161.296C345.611 161.765 348.091 162.966 350.105 164.764C352.119 166.562 353.586 168.885 354.34 171.469C355.022 173.616 355.297 175.994 356.486 177.838C358.283 180.62 361.618 181.427 364.111 183.444C365.599 184.82 366.796 186.476 367.632 188.317C368.468 190.158 368.927 192.146 368.982 194.165C369.12 198.294 368.465 202.412 367.054 206.298C366.455 207.954 365.97 209.649 365.604 211.371C365.314 213.028 365.285 214.743 365.024 216.414C364.707 218.588 363.953 220.677 362.807 222.556C361.661 224.435 360.148 226.065 358.356 227.352C357.853 227.772 357.216 228.002 356.558 228C355.428 227.885 354.732 226.559 354.311 225.392C352.006 218.778 352.557 210.679 348.31 205.419C346.379 203.27 344.032 201.53 341.409 200.304C340.35 199.618 339.152 199.171 337.901 198.992C336.061 199.084 334.292 199.727 332.827 200.837C329.761 202.866 326.368 204.357 322.795 205.246C321.01 205.661 319.155 205.676 317.362 205.293C315.57 204.909 313.886 204.135 312.43 203.027C310.43 201.37 308.965 198.906 306.747 197.623C304.529 196.341 302.21 196.427 300.021 195.534C298.626 194.939 297.387 194.034 296.399 192.889C295.41 191.745 294.698 190.39 294.318 188.93C293.937 187.469 293.898 185.941 294.203 184.464C294.508 182.986 295.149 181.597 296.078 180.403C297.528 178.66 299.673 177.694 300.963 175.778C302.63 173.285 302.485 169.884 303.283 166.916C303.76 165.04 304.678 163.303 305.96 161.848C307.243 160.393 308.854 159.26 310.662 158.543C312.418 157.953 314.302 157.842 316.117 158.219C317.932 158.597 319.612 159.45 320.983 160.69C322.433 161.987 323.593 163.673 325.013 165.013C326.416 166.348 328.133 167.311 330.007 167.815C331.882 168.318 333.853 168.346 335.741 167.895" fill="#3F3D56"/>
<path opacity="0.1" d="M352.964 379.998C352.084 380.72 351.461 381.669 351.175 382.721C350.889 383.774 350.955 384.882 351.362 385.9C351.695 386.554 367.293 383.798 368.941 383.575C373.052 383.033 380.262 383.297 383.028 379.845C387.955 373.707 372.689 375.057 369.893 375.28C364.573 375.822 357.015 376.421 352.964 379.998Z" fill="black"/>
<path d="M217.793 194.576C217.168 197.417 216.807 200.311 216.715 203.22C212.459 204.098 208.032 202.658 203.945 201.217L192.212 197.155C191.498 196.692 190.637 196.522 189.804 196.68C188.972 196.837 188.229 197.311 187.728 198.005C185.841 199.993 183.244 203.767 180.634 206C180.214 205.955 179.8 205.863 179.399 205.726C177.427 204.891 177.725 201.793 179.144 200.166C180.563 198.538 182.663 197.63 183.954 195.844C184.554 194.784 185.228 193.768 185.969 192.804C186.919 191.977 188.054 191.398 189.275 191.119C197.459 188.67 206.116 188.338 214.459 190.153C215.878 190.47 217.496 191.047 217.921 192.444C218.059 193.154 218.015 193.888 217.793 194.576V194.576Z" fill="#3F3D56"/>
<path opacity="0.1" d="M217.793 194.576C217.168 197.417 216.807 200.311 216.715 203.22C212.459 204.098 208.032 202.658 203.945 201.217L192.212 197.155C191.498 196.692 190.637 196.522 189.804 196.68C188.972 196.837 188.229 197.311 187.728 198.005C185.841 199.993 183.244 203.767 180.634 206C180.214 205.955 179.8 205.863 179.399 205.726C177.427 204.891 177.725 201.793 179.144 200.166C180.563 198.538 182.663 197.63 183.954 195.844C184.554 194.784 185.228 193.768 185.969 192.804C186.919 191.977 188.054 191.398 189.275 191.119C197.459 188.67 206.116 188.338 214.459 190.153C215.878 190.47 217.496 191.047 217.921 192.444C218.059 193.154 218.015 193.888 217.793 194.576V194.576Z" fill="black"/>
<path opacity="0.1" d="M327.911 467.395C330.011 468.042 332.285 469.005 333 471L316.114 466.941L307.365 464.85C305.819 464.479 300.278 464.039 299.257 462.897C297.799 461.218 302.976 462.388 303.909 462.511C306.738 462.897 309.567 463.309 312.381 463.791C317.689 464.699 322.793 466.171 327.911 467.395Z" fill="black"/>
<path opacity="0.1" d="M334 483C332.552 482.003 328.397 482.137 326.616 481.691C324.01 481.051 321.447 480.203 318.884 479.384C313.687 477.644 308.532 475.665 303.19 474.4C302.205 474.162 298.846 474.117 299.005 472.823C299.165 471.528 302.364 471.097 303.161 471.037C307.895 470.68 313.803 472.972 318.204 474.593C323.811 476.659 329.123 479.486 334 483V483Z" fill="black"/>
<path opacity="0.1" d="M324 455C318.401 453.541 313.32 450.231 307.553 449.589C306.053 449.629 304.579 449.199 303.358 448.364C302.68 447.721 302.208 446.906 302 446.016C305.86 445.826 310.345 447.401 313.854 448.86C315.78 449.663 317.637 450.609 319.408 451.689C320.689 452.506 322.612 454.635 324 455Z" fill="black"/>
<path d="M424.596 325C423.715 331.172 424.99 337.469 428.186 342.739C431.382 348.009 436.286 351.899 442 353.696C441.304 357.215 437.826 359.16 435.371 361.668C431.907 365.202 430.118 370.457 426.03 373.129C421.473 376.098 415.61 374.94 410.414 373.693C409.943 373.643 409.508 373.41 409.194 373.04C409.091 372.86 409.015 372.665 408.966 372.461C407.249 365.87 406.127 358.848 407.887 352.271C409.307 346.645 412.714 341.879 415.44 336.906C418.165 331.933 418.421 326.633 424.596 325Z" fill="#3F3D56"/>
<path d="M295.038 243.057C289.556 243.469 284.232 245.119 279.455 247.887C276.282 249.746 273.023 252.211 269.397 251.765C267.258 251.534 265.147 250.323 263.064 250.9C261.894 251.387 260.801 252.048 259.82 252.86C259.325 253.262 258.735 253.526 258.11 253.627C257.484 253.728 256.844 253.662 256.25 253.437L254.834 273.389C254.295 280.986 253.771 288.727 255.556 296.123C256.477 299.885 258.503 303.331 258.729 307.151C258.956 310.971 258.616 314.921 258.885 318.799C259.14 322.388 259.919 325.92 260.118 329.524C260.514 336.3 258.871 343.003 257.284 349.591C254.89 359.308 253.445 369.24 248.784 378.049C247.481 380.471 245.951 382.964 245.951 385.732C245.951 386.064 245.951 386.41 246.036 386.741C244.619 387.534 243.302 388.27 242.098 389.062C239.406 390.836 236.53 392.811 235.425 395.881C234.533 398.375 234.944 401.23 233.867 403.637C232.79 406.044 230.325 407.76 229.787 410.355C229.405 412.243 230.141 414.233 229.787 416.121C229.466 417.098 229.206 418.095 229.008 419.105C228.866 421.268 230.665 423.012 232.45 424.194C235.053 425.94 237.927 427.227 240.95 428L249.535 393.834C257.222 379.332 263.618 364.159 268.646 348.496C270.086 343.376 271.939 338.385 274.185 333.575C275.786 330.844 277.206 328.008 278.435 325.084C279.724 321.451 279.852 317.516 280.475 313.696C281.217 309.216 282.331 304.808 283.804 300.519C285.334 295.906 287.105 291.279 287.417 286.421C287.884 279.472 285.405 272.149 288.04 265.705C289.159 263.298 290.614 261.07 292.361 259.088C296.016 254.532 299.345 249.775 303 245.205C301.031 243.101 297.872 242.856 295.038 243.057Z" fill="#3F3D56"/>
<g opacity="0.1">
<path opacity="0.1" d="M335.952 163.536L334.151 163.666L333.935 163.824C334.615 163.8 335.292 163.703 335.952 163.536Z" fill="black"/>
<path opacity="0.1" d="M368.913 193.457C368.61 196.321 367.992 199.142 367.069 201.87C366.473 203.525 365.992 205.219 365.628 206.941C365.34 208.597 365.311 210.312 365.052 211.983C364.736 214.156 363.987 216.244 362.848 218.122C361.71 220 360.206 221.631 358.425 222.917C357.925 223.337 357.292 223.566 356.639 223.565C355.515 223.45 354.824 222.124 354.406 220.957C352.116 214.345 352.663 206.249 348.442 200.991C346.524 198.842 344.192 197.103 341.585 195.877C340.532 195.192 339.342 194.744 338.099 194.566C336.27 194.657 334.513 195.3 333.057 196.41C330.01 198.438 326.638 199.929 323.088 200.818C321.314 201.232 319.47 201.248 317.689 200.864C315.908 200.481 314.234 199.707 312.788 198.6C310.8 196.943 309.345 194.48 307.141 193.198C304.937 191.915 302.632 192.002 300.457 191.109C299.097 190.53 297.885 189.652 296.912 188.539C295.939 187.427 295.23 186.109 294.838 184.684C294.785 184.505 294.746 184.322 294.723 184.136C294.363 185.744 294.403 187.416 294.838 189.005C295.23 190.43 295.939 191.748 296.912 192.861C297.885 193.973 299.097 194.852 300.457 195.43C302.632 196.324 305.081 196.324 307.141 197.519C309.201 198.715 310.8 201.265 312.788 202.921C314.234 204.029 315.908 204.803 317.689 205.186C319.47 205.57 321.314 205.554 323.088 205.14C326.638 204.251 330.01 202.76 333.057 200.732C334.513 199.622 336.27 198.979 338.099 198.888C339.342 199.066 340.532 199.514 341.585 200.199C344.179 201.419 346.501 203.148 348.413 205.284C352.634 210.542 352.087 218.638 354.377 225.25C354.795 226.432 355.486 227.742 356.61 227.858C357.263 227.859 357.896 227.63 358.396 227.209C360.177 225.924 361.681 224.293 362.82 222.415C363.958 220.537 364.707 218.449 365.023 216.275C365.282 214.604 365.311 212.89 365.599 211.233C365.963 209.512 366.444 207.818 367.04 206.163C368.442 202.278 369.093 198.161 368.956 194.033C368.97 193.86 368.941 193.659 368.913 193.457Z" fill="black"/>
</g>
<path opacity="0.5" d="M72.8504 26.8237C70.4304 23.5237 65.4304 27.0937 67.6904 30.5037C68.2804 31.3937 68.9304 32.2637 69.5404 33.0837C76.9904 43.1437 80.8505 55.3637 84.1805 67.4337C84.9905 70.4337 85.7804 73.5637 84.8504 76.4937C86.1804 68.6437 85.3205 60.5437 83.3105 52.8437C81.3005 45.1437 78.1704 37.7837 74.9404 30.5137C74.3775 29.2126 73.6768 27.9756 72.8504 26.8237Z" fill="#8D86F3"/>
<path d="M24.5006 47.9839C19.5006 47.8239 18.8406 55.4539 23.8406 55.8539C25.1506 55.9539 26.4806 55.9839 27.7406 56.0239C43.1306 56.4439 57.6906 62.0239 71.6806 68.0239C75.1106 69.4939 78.6806 71.1539 80.6806 74.3039C74.3706 66.9939 66.0706 61.6339 57.2406 57.7039C48.4106 53.7739 39.0006 51.1839 29.6006 48.7739C27.9347 48.3245 26.2244 48.0596 24.5006 47.9839V47.9839Z" fill="#8D86F3"/>
<path opacity="0.2" d="M25.8905 66.7339C22.7105 66.8539 23.4305 71.3639 26.6305 71.3839C27.4605 71.3839 28.3005 71.3839 29.0905 71.3239C38.8005 70.9339 48.7505 73.614 58.3905 76.554C60.7605 77.274 63.2605 78.1039 64.9805 79.8739C59.8602 75.9203 54.0573 72.9409 47.8605 71.084C41.7561 69.262 35.5259 67.8916 29.2205 66.9839C28.1215 66.7907 27.006 66.7069 25.8905 66.7339V66.7339Z" fill="#8D86F3"/>
<path opacity="0.5" d="M90.8506 150.594C91.7506 153.594 95.9506 151.824 95.1806 148.724C94.9806 147.914 94.7306 147.114 94.5006 146.344C91.7106 137.034 91.8406 126.744 92.3006 116.664C92.4206 114.194 92.5906 111.564 93.8806 109.464C91.3206 115.406 89.8766 121.769 89.6206 128.234C89.371 134.598 89.5883 140.972 90.2706 147.304C90.3542 148.417 90.5485 149.519 90.8506 150.594V150.594Z" fill="#8D86F3"/>
<path opacity="0.2" d="M31.6709 22.5935C29.7609 22.2635 29.6209 25.0435 31.5209 25.4635C32.0209 25.5735 32.5208 25.6635 33.0008 25.7435C38.8508 26.7435 44.4509 29.6035 49.8409 32.5935C51.2259 33.2244 52.4322 34.1901 53.3508 35.4035C50.7951 32.3923 47.707 29.877 44.2409 27.9835C40.8258 26.1217 37.2797 24.5108 33.6308 23.1635C32.997 22.9119 32.3408 22.7211 31.6709 22.5935V22.5935Z" fill="#8D86F3"/>
<path d="M2.17131 96.3639C-2.67869 98.8539 1.42131 105.714 6.40131 103.434C7.70131 102.844 8.97132 102.174 10.1913 101.544C25.0013 93.8639 42.1913 91.0339 59.1913 88.8539C63.3413 88.3139 67.7713 87.8539 71.6113 89.4939C61.1413 86.4939 49.9813 86.2939 39.2013 87.5439C28.4213 88.7939 17.9313 91.5439 7.55132 94.3539C5.69383 94.8378 3.89101 95.5113 2.17131 96.3639V96.3639Z" fill="#8D86F3"/>
<path opacity="0.5" d="M16.0207 123.034C12.5407 126.274 18.0207 130.114 21.6307 127.034C22.6307 126.214 23.5007 125.354 24.3707 124.544C34.9907 114.544 49.0207 107.474 62.9907 100.944C66.4207 99.3338 80.5407 97.6938 84.3007 97.7838C74.4607 98.6638 54.3607 101.784 45.4207 105.784C36.6563 109.95 28.1836 114.704 20.0607 120.014C18.624 120.894 17.2716 121.905 16.0207 123.034V123.034Z" fill="#8D86F3"/>
<path d="M40.8806 165.594C39.8806 170.244 46.5106 170.314 47.7506 165.664C48.0706 164.444 48.3306 163.224 48.5806 162.054C51.6506 147.824 59.1606 134.004 66.9406 120.684C68.8506 117.414 79.5306 108.044 82.6806 105.974C75.0806 112.294 60.2906 126.254 55.2506 134.674C50.4063 143.085 46.1365 151.815 42.4706 160.804C41.7932 162.348 41.2609 163.951 40.8806 165.594V165.594Z" fill="#8D86F3"/>
<path d="M90.911 2.1938C88.531 -2.6462 81.751 1.33379 83.911 6.29379C84.471 7.59379 85.101 8.86379 85.701 10.0738C93.011 24.8538 95.521 41.9538 97.401 58.7638C97.861 62.8838 98.261 67.2838 96.581 71.0738C99.641 60.7238 100.051 49.6738 98.991 38.9738C97.931 28.2738 95.441 17.8338 92.801 7.5038C92.3482 5.67566 91.7151 3.89695 90.911 2.1938V2.1938Z" fill="#8D86F3"/>
<path d="M53.1011 10.4237C53.2258 10.4967 53.3666 10.5379 53.5111 10.5437C53.7811 10.5437 53.9611 10.2837 54.0711 10.0437C54.6611 8.75366 54.3211 7.04365 55.2411 5.99365C56.1661 7.11163 56.9117 8.36662 57.4511 9.71365L60.9311 8.63365C61.0974 9.31036 61.1247 10.0138 61.0112 10.7013C60.8978 11.3889 60.646 12.0463 60.2711 12.6337C60.8842 12.8945 61.441 13.2714 61.9111 13.7437C62.1471 13.9819 62.3123 14.2811 62.3883 14.6077C62.4642 14.9344 62.4479 15.2757 62.3411 15.5937C61.5356 15.7837 60.7081 15.8644 59.8811 15.8337C60.0101 17.3616 59.9226 18.9002 59.6211 20.4037C59.6131 20.5171 59.5824 20.6277 59.5309 20.7291C59.4794 20.8304 59.408 20.9204 59.3211 20.9937C59.0711 21.1537 58.7311 20.9937 58.4711 20.8537C57.2708 20.1223 56.2843 19.0875 55.6111 17.8537L54.3111 20.9437C54.2144 21.2605 54.0135 21.5353 53.7411 21.7237C53.543 21.7906 53.3283 21.7895 53.1309 21.7207C52.9335 21.6519 52.7647 21.5192 52.6511 21.3437C52.4344 20.9889 52.3042 20.5881 52.2711 20.1737L51.7811 17.2237C51.777 17.0725 51.7205 16.9276 51.6211 16.8137C51.4774 16.6985 51.2942 16.6446 51.1111 16.6637C49.8811 16.6637 48.6511 16.6637 47.4211 16.6637C47.2111 16.0137 47.8611 15.4037 48.4911 15.1337C49.1211 14.8637 49.8611 14.6437 50.1811 14.0337C50.8211 12.7937 49.1811 11.0337 49.8711 10.0337C50.6911 8.65366 52.0311 9.89366 53.1011 10.4237Z" fill="#8D86F3"/>
<path opacity="0.5" d="M120.321 26.8237C122.741 23.5237 127.741 27.0937 125.481 30.5037C124.891 31.3937 124.241 32.2637 123.631 33.0837C116.181 43.1437 112.311 55.3637 108.991 67.4337C108.171 70.4337 107.381 73.5637 108.311 76.4937C106.981 68.6437 107.851 60.5437 109.861 52.8437C111.871 45.1437 115.001 37.7837 118.231 30.5137C118.794 29.2126 119.494 27.9756 120.321 26.8237Z" fill="#8D86F3"/>
<path d="M168.661 47.9839C173.661 47.8239 174.331 55.4539 169.321 55.8539C168.011 55.9539 166.691 55.9839 165.431 56.0239C150.031 56.4439 135.481 62.0239 121.491 68.0239C118.061 69.4939 114.491 71.1539 112.491 74.3039C118.791 66.9939 127.091 61.6339 135.931 57.7039C144.771 53.7739 154.171 51.1839 163.531 48.7339C165.208 48.2959 166.929 48.0444 168.661 47.9839V47.9839Z" fill="#8D86F3"/>
<path opacity="0.5" d="M167.28 66.7339C170.45 66.8539 169.74 71.3639 166.54 71.3839C165.71 71.3839 164.87 71.3839 164.07 71.3239C154.36 70.9339 144.42 73.614 134.78 76.554C132.41 77.274 129.91 78.1039 128.19 79.8739C133.311 75.9203 139.114 72.9409 145.31 71.084C151.415 69.2609 157.645 67.8905 163.95 66.9839C165.049 66.7907 166.165 66.7069 167.28 66.7339V66.7339Z" fill="#8D86F3"/>
<path opacity="0.2" d="M161.491 22.5935C163.411 22.2635 163.551 25.0435 161.651 25.4635C161.151 25.5735 160.651 25.6635 160.161 25.7435C154.311 26.7435 148.721 29.6035 143.331 32.5935C141.946 33.2244 140.74 34.1901 139.821 35.4035C142.375 32.39 145.463 29.8744 148.931 27.9835C152.343 26.1217 155.886 24.5108 159.531 23.1635C160.166 22.9146 160.822 22.7238 161.491 22.5935V22.5935Z" fill="#8D86F3"/>
<path opacity="0.2" d="M111.751 156.364C111.321 158.254 108.691 157.314 109.041 155.364C109.131 154.864 109.241 154.364 109.351 153.894C110.691 148.114 110.201 141.844 109.531 135.724C109.482 134.199 109.052 132.711 108.281 131.394C110.085 134.935 111.217 138.78 111.621 142.734C112.022 146.6 112.139 150.49 111.971 154.374C111.96 155.043 111.887 155.709 111.751 156.364Z" fill="#8D86F3"/>
<path opacity="0.5" d="M160.271 143.794C161.761 146.314 158.101 146.144 156.491 143.614C156.061 142.954 155.681 142.284 155.301 141.614C150.761 133.874 143.841 126.234 136.881 118.844C135.229 116.926 133.302 115.264 131.161 113.914C136.621 117.621 141.655 121.921 146.171 126.734C150.641 131.414 154.591 136.284 158.461 141.144C159.122 141.986 159.726 142.872 160.271 143.794V143.794Z" fill="#8D86F3"/>
<path opacity="0.2" d="M27.4912 143.794C26.0012 146.314 29.6711 146.144 31.2811 143.614C31.7011 142.954 32.0912 142.284 32.4612 141.614C37.0012 133.874 43.9212 126.234 50.8912 118.844C52.5394 116.926 54.4638 115.265 56.6012 113.914C51.1497 117.621 46.1198 121.913 41.6012 126.714C37.1312 131.394 33.1812 136.264 29.3212 141.124C28.6533 141.973 28.042 142.864 27.4912 143.794Z" fill="#8D86F3"/>
<path opacity="0.2" d="M76.0506 156.364C76.4806 158.254 79.1006 157.314 78.7606 155.364C78.6706 154.864 78.5506 154.364 78.4406 153.894C77.1106 148.114 77.5906 141.844 78.2706 135.724C78.3217 134.2 78.7476 132.713 79.5106 131.394C77.7065 134.935 76.5741 138.78 76.1706 142.734C75.7663 146.6 75.646 150.49 75.8106 154.374C75.8281 155.043 75.9085 155.709 76.0506 156.364Z" fill="#8D86F3"/>
<path opacity="0.2" d="M146.171 41.5837C148.081 41.2537 148.221 44.0437 146.321 44.4637C145.821 44.5737 145.321 44.6537 144.841 44.7337C138.991 45.7337 133.391 48.6037 128.001 51.5837C126.613 52.2148 125.407 53.1845 124.491 54.4037C127.047 51.3893 130.135 48.8707 133.601 46.9737C137.014 45.111 140.561 43.5032 144.211 42.1637C144.843 41.9043 145.5 41.71 146.171 41.5837V41.5837Z" fill="#8D86F3"/>
<path opacity="0.2" d="M128.351 4.29357C130.001 3.29357 131.171 5.80358 129.571 6.90358C129.141 7.19358 128.711 7.45357 128.291 7.71357C123.241 10.8236 119.121 15.5736 115.241 20.3536C114.189 21.4595 113.43 22.8102 113.031 24.2836C114.28 20.5352 116.205 17.0476 118.711 13.9936C121.17 10.9904 123.844 8.16972 126.711 5.55358C127.216 5.08218 127.766 4.66025 128.351 4.29357V4.29357Z" fill="#8D86F3"/>
<path d="M191.001 96.3639C195.851 98.8539 191.751 105.714 186.771 103.434C185.471 102.844 184.191 102.174 182.981 101.544C168.161 93.8639 150.981 91.0339 133.981 88.8539C129.831 88.3139 125.401 87.8539 121.561 89.4939C132.031 86.4939 143.181 86.2939 153.971 87.5439C164.761 88.7939 175.231 91.5439 185.621 94.3539C187.477 94.8395 189.28 95.513 191.001 96.3639V96.3639Z" fill="#8D86F3"/>
<path opacity="0.5" d="M177.171 123.034C180.651 126.274 175.171 130.114 171.561 127.034C170.561 126.214 169.691 125.354 168.821 124.544C158.171 114.534 144.171 107.434 130.171 100.904C126.741 99.2938 112.621 97.6538 108.851 97.7438C118.701 98.6238 138.801 101.744 147.741 105.744C156.505 109.91 164.978 114.664 173.101 119.974C174.549 120.865 175.912 121.89 177.171 123.034V123.034Z" fill="#8D86F3"/>
<path d="M136.091 170.904C136.521 175.644 129.911 174.904 129.271 170.114C129.101 168.864 129.001 167.614 128.891 166.434C127.631 151.924 121.891 137.274 115.891 123.084C114.401 119.604 104.981 108.964 102.111 106.514C108.861 113.744 121.781 129.444 125.731 138.424C129.482 147.376 132.626 156.57 135.141 165.944C135.611 167.564 135.929 169.224 136.091 170.904V170.904Z" fill="#8D86F3"/>
<path d="M140.061 10.4237C139.936 10.4979 139.795 10.5392 139.651 10.5437C139.391 10.5437 139.211 10.2837 139.101 10.0437C138.501 8.75366 138.841 7.04365 137.931 5.99365C137.006 7.11163 136.26 8.36662 135.721 9.71365L132.231 8.63365C132.067 9.31056 132.041 10.0136 132.154 10.7008C132.267 11.388 132.518 12.0453 132.891 12.6337C132.279 12.8969 131.722 13.2735 131.251 13.7437C131.017 13.9836 130.855 14.2832 130.781 14.6096C130.706 14.936 130.724 15.2765 130.831 15.5937C131.636 15.7837 132.464 15.8644 133.291 15.8337C133.157 17.3616 133.244 18.9008 133.551 20.4037C133.559 20.5171 133.589 20.6277 133.641 20.7291C133.692 20.8304 133.764 20.9204 133.851 20.9937C134.101 21.1537 134.441 20.9937 134.701 20.8537C135.895 20.1154 136.88 19.0823 137.561 17.8537L138.861 20.9437C138.95 21.2643 139.152 21.5415 139.431 21.7237C139.629 21.7906 139.843 21.7895 140.041 21.7207C140.238 21.6519 140.407 21.5192 140.521 21.3437C140.733 20.9868 140.863 20.5871 140.901 20.1737L141.391 17.2237C141.395 17.0725 141.451 16.9276 141.551 16.8137C141.694 16.6985 141.878 16.6446 142.061 16.6637C143.291 16.6637 144.521 16.6637 145.751 16.6637C145.961 16.0137 145.311 15.4037 144.681 15.1337C144.051 14.8637 143.301 14.6437 142.991 14.0337C142.351 12.7937 143.991 11.0337 143.301 10.0337C142.481 8.65366 141.171 9.89366 140.061 10.4237Z" fill="#8D86F3"/>
<path opacity="0.2" d="M150.571 153.824C150.447 153.9 150.306 153.944 150.161 153.954C149.891 153.954 149.711 153.684 149.601 153.444C149.011 152.154 149.351 150.444 148.441 149.444C147.511 150.557 146.762 151.809 146.221 153.154L142.741 152.074C142.574 152.751 142.546 153.454 142.66 154.142C142.773 154.829 143.025 155.487 143.401 156.074C142.787 156.338 142.231 156.719 141.761 157.194C141.527 157.431 141.363 157.729 141.287 158.053C141.211 158.378 141.226 158.717 141.331 159.034C142.135 159.232 142.963 159.316 143.791 159.284C143.662 160.812 143.75 162.35 144.051 163.854C144.072 164.079 144.179 164.287 144.351 164.434C144.492 164.489 144.646 164.506 144.795 164.481C144.945 164.456 145.085 164.392 145.201 164.294C146.401 163.562 147.388 162.528 148.061 161.294L149.361 164.394C149.455 164.712 149.661 164.985 149.941 165.164C150.136 165.231 150.349 165.231 150.544 165.164C150.74 165.097 150.908 164.967 151.021 164.794C151.236 164.434 151.37 164.031 151.411 163.614L151.891 160.674C151.897 160.52 151.953 160.372 152.051 160.254C152.2 160.142 152.385 160.088 152.571 160.104C153.791 160.104 155.021 160.104 156.251 160.104C156.461 159.444 155.811 158.844 155.181 158.564C154.551 158.284 153.811 158.084 153.491 157.474C152.851 156.224 154.491 154.474 153.801 153.424C152.981 152.054 151.641 153.294 150.571 153.824Z" fill="#8D86F3"/>
<path d="M180.081 57.7337C179.956 57.8068 179.815 57.848 179.671 57.8537C179.401 57.8537 179.221 57.5837 179.111 57.3438C178.521 56.0638 178.861 54.3438 177.941 53.3438C177.018 54.4594 176.272 55.7108 175.731 57.0538L172.251 55.9837C172.084 56.6605 172.057 57.3639 172.17 58.0514C172.284 58.739 172.536 59.3963 172.911 59.9837C172.298 60.2446 171.741 60.6215 171.271 61.0938C171.034 61.3298 170.869 61.6272 170.793 61.9524C170.717 62.2775 170.734 62.6175 170.841 62.9337C171.645 63.132 172.473 63.2162 173.301 63.1837C173.172 64.7117 173.259 66.2503 173.561 67.7538C173.569 67.8672 173.599 67.9778 173.651 68.0791C173.702 68.1805 173.774 68.2705 173.861 68.3438C174.111 68.5037 174.451 68.3438 174.711 68.1938C175.913 67.465 176.9 66.4296 177.571 65.1938L178.871 68.2838C178.965 68.5991 179.167 68.8715 179.441 69.0538C179.637 69.1252 179.852 69.1275 180.051 69.0603C180.249 68.993 180.418 68.8602 180.531 68.6837C180.747 68.329 180.877 67.9282 180.911 67.5137L181.401 64.5638C181.405 64.4126 181.461 64.2677 181.561 64.1537C181.704 64.0386 181.888 63.9847 182.071 64.0038C183.301 64.0038 184.531 64.0038 185.761 64.0038C185.971 63.3538 185.321 62.7437 184.691 62.4637C184.061 62.1837 183.321 61.9837 183.001 61.3737C182.361 60.1337 184.001 58.3737 183.311 57.3737C182.491 55.9237 181.171 57.1737 180.081 57.7337Z" fill="#8D86F3"/>
<path d="M62.1006 168.214C61.9283 168.318 61.732 168.377 61.5306 168.384C61.1606 168.384 60.9106 168.014 60.7506 167.674C59.9306 165.884 60.4006 163.554 59.1306 162.044C57.8406 163.596 56.8014 165.34 56.0506 167.214L51.1706 165.734C50.9451 166.675 50.9103 167.652 51.0683 168.607C51.2263 169.562 51.5739 170.475 52.0906 171.294C51.2382 171.665 50.4617 172.19 49.8006 172.844C49.4774 173.178 49.2516 173.594 49.1477 174.047C49.0437 174.499 49.0655 174.972 49.2106 175.414C50.3325 175.686 51.487 175.801 52.6406 175.754C52.4601 177.887 52.5813 180.035 53.0006 182.134C53.0128 182.29 53.0563 182.442 53.1284 182.581C53.2006 182.72 53.2999 182.844 53.4206 182.944C53.7706 183.164 54.2406 182.944 54.6006 182.744C56.2817 181.709 57.6612 180.25 58.6006 178.514L60.4106 182.824C60.5447 183.265 60.8274 183.647 61.2106 183.904C61.4854 183.996 61.7833 183.995 62.0569 183.899C62.3305 183.803 62.5641 183.618 62.7206 183.374C63.027 182.881 63.2121 182.322 63.2606 181.744L63.9306 177.644C63.948 177.432 64.028 177.23 64.1606 177.064C64.3643 176.903 64.6225 176.828 64.8806 176.854C66.5906 176.804 68.3006 176.794 70.0106 176.804C70.3106 175.894 69.4006 175.044 68.5206 174.664C67.6406 174.284 66.6106 173.994 66.1706 173.144C65.2706 171.404 67.5806 168.994 66.6006 167.504C65.4706 165.734 63.6006 167.464 62.1006 168.214Z" fill="#8D86F3"/>
<path d="M13.0208 60.5738C12.8453 60.6794 12.6456 60.738 12.4408 60.7438C12.0808 60.7438 11.8208 60.3738 11.6708 60.0338C10.8408 58.2438 11.3208 55.9138 10.0508 54.4038C8.75769 55.9556 7.71509 57.7 6.96081 59.5738L2.11082 58.0738C1.88152 59.0142 1.84391 59.9911 2.00025 60.9464C2.1566 61.9016 2.50369 62.8156 3.02082 63.6338C2.17146 64.0049 1.39837 64.5305 0.740824 65.1838C0.42465 65.5179 0.204727 65.9313 0.10438 66.3802C0.00403396 66.8292 0.0269946 67.2969 0.170817 67.7338C1.2927 68.0065 2.44722 68.121 3.60081 68.0738C3.41872 70.2072 3.54333 72.3557 3.97082 74.4538C3.99614 74.7671 4.14336 75.0579 4.38082 75.2638C4.74082 75.4938 5.21081 75.2638 5.57081 75.0638C7.2519 74.0288 8.63134 72.5701 9.57081 70.8338L11.3708 75.1438C11.5028 75.5892 11.7902 75.9724 12.1808 76.2238C12.4546 76.3157 12.7511 76.3146 13.0242 76.2205C13.2973 76.1265 13.5317 75.9448 13.6908 75.7038C13.9928 75.2059 14.1742 74.6443 14.2208 74.0638L14.9008 69.9638C14.9108 69.752 14.9879 69.5489 15.1208 69.3838C15.3272 69.2284 15.5832 69.1537 15.8408 69.1738C17.5508 69.1238 19.2608 69.1138 20.9808 69.1238C21.2708 68.2138 20.3608 67.3638 19.4908 66.9838C18.6208 66.6038 17.5708 66.3138 17.1308 65.4638C16.2408 63.7238 18.5508 61.3138 17.5708 59.8238C16.3808 58.1038 14.5108 59.8238 13.0208 60.5738Z" fill="#8D86F3"/>
<path opacity="0.2" d="M161.961 127.234C161.867 127.282 161.765 127.312 161.661 127.324C161.564 127.301 161.475 127.254 161.402 127.188C161.329 127.121 161.273 127.037 161.241 126.944C160.801 125.994 161.061 124.754 160.381 123.944C159.694 124.77 159.141 125.697 158.741 126.694L156.161 125.894C156.043 126.393 156.025 126.912 156.109 127.418C156.193 127.925 156.377 128.409 156.651 128.844C156.2 129.044 155.789 129.325 155.441 129.674C155.267 129.849 155.146 130.069 155.089 130.309C155.033 130.549 155.044 130.8 155.121 131.034C155.715 131.183 156.328 131.244 156.941 131.214C156.846 132.348 156.914 133.489 157.141 134.604C157.147 134.687 157.169 134.767 157.207 134.841C157.245 134.915 157.297 134.981 157.361 135.034C157.551 135.154 157.791 135.034 157.991 134.934C158.878 134.378 159.608 133.603 160.111 132.684L161.111 134.974C161.176 135.209 161.326 135.411 161.531 135.544C161.678 135.594 161.837 135.593 161.983 135.542C162.13 135.492 162.256 135.394 162.341 135.264C162.5 134.999 162.596 134.702 162.621 134.394L162.981 132.214C162.988 132.104 163.03 131.999 163.101 131.914C163.153 131.87 163.214 131.838 163.279 131.819C163.344 131.8 163.413 131.795 163.481 131.804C164.394 131.804 165.304 131.804 166.211 131.804C166.361 131.324 165.881 130.874 165.411 130.664C164.941 130.454 164.411 130.314 164.161 129.854C163.691 128.934 164.921 127.654 164.401 126.854C163.881 126.054 162.751 126.834 161.961 127.234Z" fill="#8D86F3"/>
<path opacity="0.2" d="M95.281 165.734C95.1918 165.792 95.0876 165.824 94.981 165.824C94.781 165.824 94.651 165.634 94.571 165.454C94.131 164.454 94.381 163.264 93.701 162.454C93.019 163.283 92.4661 164.21 92.061 165.204L89.491 164.404C89.3628 164.91 89.3392 165.438 89.4217 165.953C89.5042 166.469 89.6911 166.963 89.971 167.404C89.5225 167.604 89.1129 167.881 88.761 168.224C88.5869 168.401 88.4649 168.622 88.4084 168.864C88.352 169.106 88.3632 169.358 88.441 169.594C89.0372 169.733 89.6491 169.794 90.261 169.774C90.1676 170.908 90.2349 172.049 90.461 173.164C90.4671 173.247 90.4896 173.327 90.5274 173.401C90.5652 173.475 90.6174 173.541 90.681 173.594C90.871 173.714 91.121 173.594 91.311 173.484C92.2021 172.932 92.933 172.156 93.431 171.234L94.431 173.524C94.4946 173.762 94.6442 173.969 94.851 174.104C94.998 174.154 95.1573 174.153 95.3039 174.102C95.4505 174.052 95.5761 173.954 95.661 173.824C95.8202 173.559 95.9161 173.262 95.941 172.954L96.301 170.774C96.3087 170.661 96.3506 170.553 96.421 170.464C96.5326 170.387 96.6658 170.349 96.801 170.354C97.711 170.354 98.621 170.354 99.531 170.354C99.681 169.864 99.201 169.414 98.741 169.214C98.281 169.014 97.741 168.854 97.491 168.404C97.011 167.484 98.241 166.204 97.721 165.404C97.201 164.604 96.081 165.334 95.281 165.734Z" fill="#8D86F3"/>
<path opacity="0.5" d="M30.7511 30.9836C30.6624 31.0431 30.5579 31.0745 30.4511 31.0736C30.2511 31.0736 30.1211 30.8736 30.0411 30.7036C29.6011 29.7036 29.8511 28.5136 29.1811 27.7036C28.4921 28.5275 27.9385 29.4558 27.5411 30.4536L24.9611 29.6536C24.8325 30.1605 24.8096 30.6885 24.8939 31.2046C24.9782 31.7207 25.1679 32.214 25.4511 32.6536C24.9962 32.8474 24.5823 33.1256 24.2311 33.4736C24.0587 33.6515 23.9386 33.8735 23.8839 34.1151C23.8292 34.3568 23.8421 34.6088 23.9211 34.8436C24.5171 34.984 25.1291 35.0445 25.7411 35.0236C25.6444 36.1569 25.7084 37.2982 25.9311 38.4136C25.9371 38.4964 25.9597 38.577 25.9975 38.6509C26.0353 38.7248 26.0875 38.7903 26.1511 38.8436C26.3411 38.9636 26.5911 38.8436 26.7811 38.7336C27.6758 38.1861 28.4078 37.4093 28.9011 36.4836L29.9011 38.7736C29.9672 39.0137 30.1205 39.2206 30.3311 39.3536C30.4766 39.4026 30.6343 39.4016 30.7792 39.3509C30.924 39.3002 31.0479 39.2026 31.1311 39.0736C31.2903 38.8091 31.3861 38.5113 31.4111 38.2036L31.7711 36.0236C31.7788 35.9105 31.8206 35.8024 31.8911 35.7136C32.0027 35.6371 32.1359 35.5985 32.2711 35.6036C33.1811 35.6036 34.0911 35.6036 35.0011 35.6036C35.1611 35.1136 34.6711 34.6636 34.2111 34.4636C33.7511 34.2636 33.2111 34.1036 32.9611 33.6536C32.4811 32.7336 33.7111 31.4536 33.1911 30.6536C32.6711 29.8536 31.5511 30.5936 30.7511 30.9836Z" fill="#8D86F3"/>
<path opacity="0.5" d="M65.1013 106.914C65.0083 106.972 64.901 107.003 64.7913 107.004C64.6013 107.004 64.4613 106.804 64.3813 106.634C63.9413 105.634 64.1913 104.444 63.5213 103.634C62.8358 104.46 62.2826 105.388 61.8813 106.384L59.3013 105.584C59.178 106.091 59.1578 106.618 59.242 107.133C59.3262 107.649 59.513 108.142 59.7913 108.584C59.3381 108.775 58.927 109.054 58.5813 109.404C58.4072 109.581 58.2852 109.802 58.2287 110.044C58.1723 110.286 58.1836 110.538 58.2613 110.774C58.8575 110.913 59.4694 110.974 60.0813 110.954C59.9846 112.084 60.0486 113.222 60.2713 114.334C60.2862 114.503 60.3648 114.66 60.4913 114.774C60.6813 114.894 60.9313 114.774 61.1213 114.664C62.0124 114.112 62.7433 113.336 63.2413 112.414L64.2413 114.704C64.3131 114.941 64.4651 115.146 64.6713 115.284C64.8167 115.335 64.975 115.335 65.1203 115.284C65.2656 115.233 65.3893 115.134 65.4713 115.004C65.634 114.74 65.7333 114.442 65.7613 114.134L66.1213 111.954C66.1248 111.84 66.1671 111.73 66.2413 111.644C66.3516 111.564 66.4858 111.526 66.6213 111.534C67.5313 111.534 68.4413 111.534 69.3413 111.534C69.5013 111.044 69.0213 110.594 68.5513 110.394C68.0813 110.194 67.5513 110.034 67.3013 109.584C66.8313 108.664 68.0613 107.384 67.5313 106.584C67.0013 105.784 65.8913 106.524 65.1013 106.914Z" fill="#8D86F3"/>
<path opacity="0.5" d="M40.1706 77.3137C40.0815 77.3721 39.9773 77.4034 39.8707 77.4037C39.6707 77.4037 39.5407 77.2037 39.4607 77.0337C39.0207 76.0337 39.2707 74.8437 38.5907 74.0337C37.9087 74.8626 37.3557 75.7897 36.9506 76.7837L34.3806 75.9837C34.253 76.4901 34.2297 77.0173 34.3122 77.533C34.3947 78.0488 34.5813 78.5423 34.8606 78.9837C34.4104 79.1804 34.0002 79.4584 33.6507 79.8037C33.4765 79.9806 33.3545 80.202 33.2981 80.4437C33.2416 80.6854 33.2529 80.938 33.3306 81.1737C33.9268 81.313 34.5387 81.3735 35.1507 81.3537C35.0572 82.4841 35.1246 83.6221 35.3506 84.7337C35.3559 84.818 35.3781 84.9005 35.4159 84.976C35.4537 85.0516 35.5063 85.1189 35.5706 85.1737C35.7606 85.2937 36.0106 85.1737 36.2006 85.0637C37.0917 84.5117 37.8226 83.736 38.3206 82.8137L39.3206 85.1037C39.3864 85.3385 39.5358 85.5413 39.7406 85.6737C39.8862 85.728 40.0459 85.7308 40.1933 85.6817C40.3407 85.6325 40.4668 85.5344 40.5506 85.4037C40.7099 85.1392 40.8057 84.8414 40.8306 84.5337L41.1906 82.3537C41.1983 82.2406 41.2402 82.1325 41.3107 82.0437C41.4222 81.9672 41.5554 81.9286 41.6906 81.9337C42.6006 81.9337 43.5106 81.9337 44.4206 81.9337C44.5706 81.4437 44.0906 80.9937 43.6306 80.7937C43.1706 80.5937 42.6306 80.4337 42.3806 79.9837C41.9006 79.0637 43.1306 77.7837 42.6106 76.9837C42.0906 76.1837 40.9706 76.9237 40.1706 77.3137Z" fill="#8D86F3"/>
<path opacity="0.5" d="M147.231 84.2839C147.141 84.3408 147.038 84.372 146.931 84.3739C146.731 84.3739 146.601 84.1739 146.511 84.0039C146.081 83.0039 146.331 81.8139 145.651 81.0039C144.969 81.8328 144.416 82.7599 144.011 83.7539L141.441 82.9539C141.314 83.4604 141.29 83.9875 141.373 84.5033C141.455 85.019 141.642 85.5126 141.921 85.9539C141.468 86.1452 141.057 86.4238 140.711 86.7739C140.537 86.9508 140.415 87.1722 140.359 87.4139C140.302 87.6556 140.313 87.9082 140.391 88.1439C140.987 88.2832 141.599 88.3437 142.211 88.3239C142.118 89.4544 142.185 90.5924 142.411 91.7039C142.416 91.7883 142.439 91.8707 142.476 91.9463C142.514 92.0218 142.567 92.0891 142.631 92.1439C142.821 92.2639 143.071 92.1439 143.261 92.0339C144.149 91.478 144.879 90.7032 145.381 89.7839L146.381 92.0739C146.447 92.3088 146.596 92.5115 146.801 92.6439C146.947 92.6982 147.106 92.701 147.254 92.6519C147.401 92.6027 147.527 92.5047 147.611 92.3739C147.77 92.1094 147.866 91.8116 147.891 91.5039L148.251 89.3239C148.259 89.2108 148.301 89.1027 148.371 89.0139C148.481 88.9346 148.616 88.8957 148.751 88.9039H151.481C151.631 88.4239 151.151 87.9739 150.691 87.7739C150.231 87.5739 149.691 87.4139 149.441 86.9639C148.961 86.0439 150.191 84.7639 149.671 83.9639C149.151 83.1639 148.031 83.8939 147.231 84.2839Z" fill="#8D86F3"/>
<path opacity="0.2" d="M95.2809 78.4638C95.1878 78.5133 95.0859 78.5439 94.9809 78.5538C94.7809 78.5538 94.6509 78.3538 94.5709 78.1738C94.1309 77.2238 94.3809 75.9838 93.7009 75.1738C93.0146 75.9997 92.4613 76.9275 92.0609 77.9238L89.4909 77.1238C89.3685 77.6226 89.348 78.1409 89.4304 78.6477C89.5129 79.1546 89.6967 79.6396 89.9709 80.0738C89.522 80.2773 89.1124 80.5583 88.7609 80.9038C88.5876 81.0792 88.4661 81.2989 88.4097 81.5388C88.3532 81.7788 88.364 82.0296 88.4409 82.2638C89.0354 82.4132 89.6487 82.4738 90.2609 82.4438C90.1665 83.5776 90.2339 84.719 90.4609 85.8338C90.467 85.9166 90.4895 85.9973 90.5273 86.0711C90.5651 86.145 90.6173 86.2105 90.6809 86.2638C90.8709 86.3838 91.1209 86.2638 91.3109 86.1638C92.202 85.6119 92.9329 84.8361 93.4309 83.9138L94.4309 86.2038C94.4967 86.4387 94.6461 86.6414 94.8509 86.7738C94.9979 86.8235 95.1572 86.823 95.3038 86.7723C95.4504 86.7216 95.576 86.6236 95.6609 86.4938C95.8187 86.2323 95.9145 85.9381 95.9409 85.6338L96.3009 83.4538C96.3073 83.3404 96.3493 83.232 96.4209 83.1438C96.5281 83.0585 96.6647 83.019 96.8009 83.0338C97.7143 83.0338 98.6242 83.0338 99.5309 83.0338C99.6809 82.5538 99.2009 82.1038 98.7409 81.8938C98.2809 81.6838 97.7409 81.5438 97.4909 81.0938C97.0109 80.1638 98.2409 78.8838 97.7209 78.0938C97.2009 77.3038 96.0809 78.0638 95.2809 78.4638Z" fill="#8D86F3"/>
<path opacity="0.3" d="M78.9811 85.5537C78.8893 85.6063 78.7867 85.6371 78.6811 85.6437C78.4811 85.6437 78.3511 85.4437 78.2611 85.2637C77.8211 84.3137 78.0811 83.0837 77.4011 82.2637C76.717 83.091 76.1638 84.0185 75.7611 85.0137L73.1811 84.2137C73.0578 84.7211 73.0376 85.2481 73.1218 85.7634C73.206 86.2787 73.3928 86.7719 73.6711 87.2137C73.2179 87.405 72.8068 87.6836 72.4611 88.0337C72.2879 88.209 72.1663 88.4287 72.1098 88.6687C72.0534 88.9086 72.0642 89.1595 72.1411 89.3937C72.736 89.5413 73.3486 89.6053 73.9611 89.5837C73.8677 90.7141 73.935 91.8521 74.1611 92.9637C74.166 93.0467 74.1881 93.1278 74.2259 93.2018C74.2638 93.2758 74.3166 93.3412 74.3811 93.3937C74.4853 93.4357 74.599 93.4485 74.71 93.4309C74.8209 93.4133 74.925 93.3659 75.0111 93.2937C75.899 92.7378 76.629 91.963 77.1311 91.0437L78.1311 93.3337C78.1969 93.5685 78.3463 93.7712 78.5511 93.9037C78.6972 93.9526 78.8551 93.9527 79.0012 93.904C79.1473 93.8553 79.2737 93.7604 79.3611 93.6337C79.5204 93.3692 79.6162 93.0714 79.6411 92.7637L80.0011 90.5837C80.0088 90.4706 80.0507 90.3625 80.1211 90.2737C80.1733 90.2299 80.2341 90.1976 80.2995 90.1786C80.365 90.1597 80.4336 90.1546 80.5011 90.1637C81.4111 90.1637 82.3211 90.1637 83.2311 90.1637C83.3811 89.6837 82.9011 89.2337 82.4411 89.0337C81.9811 88.8337 81.4411 88.6737 81.1911 88.2237C80.7111 87.3037 81.9411 86.0237 81.4211 85.2237C80.9011 84.4237 79.7811 85.1537 78.9811 85.5537Z" fill="#8D86F3"/>
<path opacity="0.2" d="M63.7905 42.6335C63.6976 42.6917 63.5902 42.7229 63.4805 42.7235C63.2905 42.7235 63.1505 42.5235 63.0705 42.3535C62.6305 41.3535 62.8805 40.1635 62.2105 39.3535C61.5251 40.1799 60.9718 41.1076 60.5705 42.1035L57.9905 41.3035C57.8619 41.8104 57.8391 42.3384 57.9234 42.8545C58.0077 43.3706 58.1973 43.8639 58.4805 44.3035C58.0257 44.4973 57.6117 44.7755 57.2605 45.1235C57.09 45.3026 56.9712 45.5246 56.9166 45.7658C56.862 46.007 56.8737 46.2584 56.9505 46.4935C57.5467 46.6328 58.1586 46.6934 58.7705 46.6735C58.6738 47.8035 58.7378 48.9415 58.9605 50.0535C58.9642 50.1368 58.9857 50.2183 59.0236 50.2925C59.0616 50.3667 59.1151 50.4319 59.1805 50.4835C59.2848 50.5255 59.3984 50.5384 59.5094 50.5208C59.6203 50.5031 59.7245 50.4557 59.8105 50.3835C60.7016 49.8316 61.4325 49.0558 61.9305 48.1335L62.9305 50.4235C62.9988 50.66 63.1519 50.8629 63.3605 50.9935C63.5048 51.0452 63.6623 51.0467 63.8075 50.9977C63.9527 50.9487 64.0771 50.8521 64.1605 50.7235C64.3233 50.4599 64.4226 50.1621 64.4505 49.8535L64.8005 47.6735C64.8082 47.5604 64.8501 47.4523 64.9205 47.3635C65.0278 47.2782 65.1643 47.2387 65.3005 47.2535H68.0305C68.1905 46.7735 67.7105 46.3235 67.2405 46.1235C66.7705 45.9235 66.2405 45.7635 65.9905 45.3135C65.5205 44.3935 66.7405 43.1135 66.2205 42.3135C65.7005 41.5135 64.5805 42.2435 63.7905 42.6335Z" fill="#8D86F3"/>
<path opacity="0.3" d="M93.7211 98.6435C93.6245 98.6931 93.5192 98.7236 93.4111 98.7335C93.3163 98.7099 93.229 98.6626 93.1573 98.5962C93.0856 98.5297 93.0319 98.4463 93.0011 98.3535C92.5611 97.3535 92.8111 96.1635 92.1411 95.3535C91.4514 96.1769 90.8977 97.1053 90.5011 98.1035L87.9211 97.3035C87.7984 97.8028 87.7786 98.3217 87.8628 98.8289C87.9471 99.336 88.1336 99.8207 88.4111 100.254C87.9578 100.455 87.5445 100.736 87.1911 101.084C87.0214 101.261 86.903 101.481 86.8485 101.721C86.7939 101.96 86.8052 102.21 86.8811 102.444C87.4755 102.593 88.0889 102.654 88.7011 102.624C88.6034 103.757 88.6674 104.898 88.8911 106.014C88.9084 106.179 88.9869 106.333 89.1111 106.444C89.3011 106.564 89.5511 106.444 89.7411 106.344C90.6322 105.792 91.3631 105.016 91.8611 104.094L92.8611 106.384C92.9357 106.617 93.0873 106.818 93.2911 106.954C93.4364 107.004 93.5947 107.004 93.7401 106.953C93.8854 106.903 94.0092 106.804 94.0911 106.674C94.2539 106.41 94.3531 106.112 94.3811 105.804L94.7411 103.624C94.7426 103.512 94.7853 103.405 94.8611 103.324C94.9133 103.28 94.9741 103.247 95.0395 103.228C95.1049 103.21 95.1736 103.204 95.2411 103.214C96.1511 103.214 97.0511 103.214 97.9611 103.214C98.1211 102.734 97.6411 102.284 97.1711 102.074C96.7011 101.864 96.1711 101.724 95.9211 101.264C95.4511 100.344 96.6711 99.0635 96.1511 98.2635C95.6311 97.4635 94.5111 98.2435 93.7211 98.6435Z" fill="#8D86F3"/>
<defs>
<linearGradient id="paint0_linear" x1="363.49" y1="678.132" x2="363.49" y2="98.0909" gradientUnits="userSpaceOnUse">
<stop stop-color="#808080" stop-opacity="0.25"/>
<stop offset="0.54" stop-color="#808080" stop-opacity="0.12"/>
<stop offset="1" stop-color="#808080" stop-opacity="0.1"/>
</linearGradient>
</defs>
</svg>
